<svg id="visual" viewBox="0 0 900 600" width="900" height="600" xmlns="http://www.w3.org/2000/svg" xmlns:xlink="http://www.w3.org/1999/xlink" version="1.1"><g transform="translate(471.8204209594571 303.77086671581753)"><path d="M167 -185.3C205.4 -166.8 217.9 -103.7 215.6 -48.1C213.4 7.4 196.3 55.5 170.7 97.3C145 139.2 110.8 174.8 71.9 182.5C32.9 190.1 -10.7 169.8 -62 156.9C-113.3 144.1 -172.3 138.8 -212.1 105.3C-252 71.8 -272.7 10 -250.3 -31.4C-227.8 -72.8 -162.1 -93.9 -113.2 -110.6C-64.3 -127.3 -32.1 -139.6 16.1 -158.8C64.3 -177.9 128.6 -203.9 167 -185.3" fill="#21FF7E"></path></g></svg>