<svg width="313" height="258" viewBox="0 0 313 258" fill="none" xmlns="http://www.w3.org/2000/svg">
<path fill-rule="evenodd" clip-rule="evenodd" d="M154.668 1.00798C49.3818 18.4366 -14.9753 67.7223 3.16752 129.079C11.3104 156.579 38.8104 178.364 77.5247 187.864C115.525 197.222 139.239 198.007 172.525 196.436C172.525 196.436 172.953 202.794 166.739 210.579C159.239 220.008 146.953 226.508 146.882 226.579C142.882 222.794 140.382 220.365 138.668 219.151C134.025 215.937 134.953 221.794 125.81 235.222C111.096 256.794 111.168 259.008 126.596 257.008C147.953 254.222 159.096 253.008 162.953 252.937C168.453 252.865 168.596 251.365 163.525 246.222L159.882 242.579L164.31 240.937C179.668 235.365 196.239 220.008 204.239 202.079C210.382 188.437 207.239 189.937 212.453 188.151C229.882 182.151 253.596 167.651 272.596 151.294C345.953 88.2223 313.882 11.3651 207.668 1.93655C189.668 0.365125 192.882 6.7937 211.382 9.43655C245.453 14.2937 292.453 26.008 302.596 59.1508C314.596 98.4366 270.668 154.437 208.168 179.579C204.239 181.151 201.31 184.651 200.453 188.865C196.81 206.937 192.882 214.294 173.525 227.294C163.453 234.079 156.453 238.365 154.596 238.865C151.382 239.722 153.525 241.651 158.525 247.365C158.453 247.365 126.025 250.508 126.025 250.508C130.382 243.865 132.239 240.936 137.453 226.079C137.668 225.364 138.882 226.222 141.239 228.794C144.31 232.079 147.096 233.579 147.096 231.865C147.096 231.508 148.025 231.222 149.096 230.865C154.953 228.722 170.81 215.579 175.453 206.079C183.739 189.007 184.168 189.294 149.382 189.222C68.5961 189.079 20.8818 168.722 9.66752 129.65C-5.83248 75.5073 63.3104 19.7223 155.81 11.3651C193.096 7.93655 173.382 -2.06345 154.668 1.00798Z" fill="white"/>
</svg>
