<svg width="999.9999999999997" height="999.9999999999997" xmlns="http://www.w3.org/2000/svg">

 <g id="imagebot_2">
  <title>imagebot_2</title>
  <path d="M 5.6255 20.907 L 5.6255 39.093" transform="matrix(1.0583 0 0 0.992066 689.79 -13.7411)" stroke-width="10" stroke-linejoin="round" stroke-linecap="round" stroke="#ffffff" fill="none" id="imagebot_6"/>
  <path d="M 55.186 31.209 L 4.081 31.209" transform="matrix(-1.00952 0 0 0.920806 751.455 -12.7162)" stroke-width="10.628" stroke-linejoin="round" stroke-linecap="round" stroke="#ffffff" fill="none" id="imagebot_5"/>
  <path d="M 5.6255 20.907 L 5.6255 39.093" transform="rotate(179.993 192.119 333.685) matrix(1.0583 0.000260865 -0.000260865 0.992066 186.173 303.922)" stroke-width="5" stroke-linejoin="round" stroke-linecap="round" stroke="#000000" fill="none" id="imagebot_23"/>
  <path d="M 5.6255 20.907 L 5.6255 39.093" transform="rotate(191.567 195.912 368.733) matrix(0.975861 -0.402793 0.402793 0.909623 178.338 343.71)" stroke-width="5" stroke-linejoin="round" stroke-linecap="round" stroke="#000000" fill="none" id="imagebot_24"/>
  <path d="M 5.6255 20.907 L 5.6255 39.093" transform="rotate(200.45 207.291 400.225) matrix(0.808015 -0.671224 0.671224 0.741777 182.608 381.748)" stroke-width="5" stroke-linejoin="round" stroke-linecap="round" stroke="#000000" fill="none" id="imagebot_25"/>
  <path d="M 5.6255 20.907 L 5.6255 39.093" transform="rotate(214.819 223.546 429.178) matrix(0.389818 -0.96113 0.96113 0.32358 192.519 424.877)" stroke-width="5" stroke-linejoin="round" stroke-linecap="round" stroke="#000000" fill="none" id="imagebot_26"/>
  <path d="M 5.6255 20.907 L 5.6255 39.093" transform="rotate(224.978 245.762 455.59) matrix(0.0339072 -1.02518 1.02518 -0.0323308 214.816 462.328)" stroke-width="5" stroke-linejoin="round" stroke-linecap="round" stroke="#000000" fill="none" id="imagebot_27"/>
  <path d="M 5.6255 20.907 L 5.6255 39.093" transform="rotate(236.573 271.771 475.908) matrix(-0.369848 -0.942667 0.942667 -0.436086 245.572 494.294)" stroke-width="5" stroke-linejoin="round" stroke-linecap="round" stroke="#000000" fill="none" id="imagebot_28"/>
  <path d="M 5.6255 20.907 L 5.6255 39.093" transform="rotate(248.245 301.573 490.638) matrix(-0.710396 -0.705826 0.705826 -0.776634 284.394 517.908)" stroke-width="5" stroke-linejoin="round" stroke-linecap="round" stroke="#000000" fill="none" id="imagebot_29"/>
  <path d="M 5.6255 20.907 L 5.6255 39.093" transform="rotate(257.264 335.168 500.797) matrix(-0.892407 -0.440916 0.440916 -0.958645 326.96 532.037)" stroke-width="5" stroke-linejoin="round" stroke-linecap="round" stroke="#000000" fill="none" id="imagebot_30"/>
  <path d="M 5.62552 20.907 L 5.62552 39.093" transform="rotate(267.803 369.305 503.844) matrix(-0.989053 -0.0785431 0.0785431 -1.05529 372.513 535.945)" stroke-width="5" stroke-linejoin="round" stroke-linecap="round" stroke="#000000" fill="none" id="imagebot_32"/>
  <path d="M 5.62552 20.907 L 5.62552 39.093" transform="rotate(265.213 405.76 504.664) matrix(-0.989053 -0.0785431 0.0785431 -1.05529 408.967 536.764)" stroke-width="5" stroke-linejoin="round" stroke-linecap="round" stroke="#000000" fill="none" id="imagebot_35"/>
  <path d="M 5.62552 20.907 L 5.62552 39.093" transform="rotate(264.433 443.033 504.664) matrix(-0.989053 -0.0785431 0.0785431 -1.05529 446.241 536.764)" stroke-width="5" stroke-linejoin="round" stroke-linecap="round" stroke="#000000" fill="none" id="imagebot_36"/>
  <path d="M 5.62552 20.907 L 5.62552 39.093" transform="rotate(265.044 478.259 504.663) matrix(-0.989053 -0.0785431 0.0785431 -1.05529 481.467 536.764)" stroke-width="5" stroke-linejoin="round" stroke-linecap="round" stroke="#000000" fill="none" id="imagebot_37"/>
  <path d="M 5.62552 20.907 L 5.62552 39.093" transform="rotate(265.979 513.075 504.663) matrix(-0.989053 -0.0785431 0.0785431 -1.05529 516.283 536.764)" stroke-width="5" stroke-linejoin="round" stroke-linecap="round" stroke="#000000" fill="none" id="imagebot_38"/>
  <path d="M 5.62552 20.907 L 5.62552 39.093" transform="rotate(265.979 550.349 505.073) matrix(-0.989053 -0.0785431 0.0785431 -1.05529 553.557 537.174)" stroke-width="5" stroke-linejoin="round" stroke-linecap="round" stroke="#000000" fill="none" id="imagebot_39"/>
  <path d="M 5.62552 20.907 L 5.62552 39.093" transform="rotate(265.979 585.165 505.482) matrix(-0.989053 -0.0785431 0.0785431 -1.05529 588.373 537.583)" stroke-width="5" stroke-linejoin="round" stroke-linecap="round" stroke="#000000" fill="none" id="imagebot_41"/>
  <path d="M 5.62552 20.907 L 5.62552 39.093" transform="rotate(265.979 619.571 505.892) matrix(-0.989053 -0.0785431 0.0785431 -1.05529 622.779 537.993)" stroke-width="5" stroke-linejoin="round" stroke-linecap="round" stroke="#000000" fill="none" id="imagebot_42"/>
  <path d="M 5.62552 20.907 L 5.62552 39.093" transform="rotate(265.979 655.206 505.892) matrix(-0.989053 -0.0785431 0.0785431 -1.05529 658.414 537.993)" stroke-width="5" stroke-linejoin="round" stroke-linecap="round" stroke="#000000" fill="none" id="imagebot_43"/>
  <path d="M 5.62552 20.907 L 5.62552 39.093" transform="rotate(265.979 692.48 506.301) matrix(-0.989053 -0.0785431 0.0785431 -1.05529 695.688 538.402)" stroke-width="5" stroke-linejoin="round" stroke-linecap="round" stroke="#000000" fill="none" id="imagebot_44"/>
  <path d="M 5.62552 20.907 L 5.62552 39.093" transform="rotate(265.979 728.115 506.711) matrix(-0.989053 -0.0785431 0.0785431 -1.05529 731.323 538.812)" stroke-width="5" stroke-linejoin="round" stroke-linecap="round" stroke="#000000" fill="none" id="imagebot_45"/>
 </g>
 <metadata>image/svg+xmlOpenclipart</metadata>
</svg>