<svg width="4053" height="1671" viewBox="0 0 4053 1671" fill="none" xmlns="http://www.w3.org/2000/svg">
<path d="M2466.76 329.941C2573.68 381.464 2608.49 557.197 2602.08 712.043C2595.96 866.611 2548.34 1000.57 2477.06 1116.98C2405.5 1233.67 2310.27 1332.82 2201.96 1354.26C2093.37 1375.43 1971.96 1318.89 1829.12 1282.97C1686.28 1247.32 1522 1232.56 1411.18 1139.26C1300.08 1045.96 1242.44 873.852 1304.81 758.553C1367.46 643.254 1550.4 584.49 1686.56 537.981C1822.72 491.471 1912.38 457.216 2046.59 403.744C2180.8 350.55 2359.84 278.14 2466.76 329.941Z" fill="#21FF7E"/>
<mask id="mask0_413_2284" style="mask-type:alpha" maskUnits="userSpaceOnUse" x="2757" y="157" width="1296" height="1296">
<path d="M3405.13 1452.74C3047.32 1452.74 2757.26 1162.68 2757.26 804.869C2757.26 447.061 3047.32 157 3405.13 157C3762.94 157 4053 447.061 4053 804.869C4053 1162.68 3762.94 1452.74 3405.13 1452.74Z" fill="#D9D9D9"/>
</mask>
<g mask="url(#mask0_413_2284)">
<path d="M3049.96 1339.75C3052.93 1341.87 3056.33 1343.99 3059.31 1346.12C3062.71 1348.24 3065.68 1350.37 3069.08 1352.07C3072.05 1353.77 3074.6 1355.47 3077.57 1357.16C3078 1357.59 3078.42 1357.59 3078.85 1358.01C3088.62 1363.96 3098.82 1369.48 3109.01 1374.58C3111.99 1376.28 3115.39 1377.98 3118.36 1379.26C3118.36 1379.26 3118.78 1379.68 3119.21 1379.68C3122.61 1381.38 3126.01 1383.08 3129.4 1384.78C3136.2 1388.18 3143.42 1391.15 3150.22 1394.13C3153.62 1395.82 3157.44 1397.1 3160.84 1398.37C3164.24 1399.65 3168.06 1401.35 3171.46 1402.62C3174.86 1403.9 3178.69 1405.6 3182.08 1406.87C3182.08 1406.87 3182.08 1406.87 3182.51 1406.87C3185.91 1408.14 3189.73 1409.42 3193.13 1410.69C3200.78 1413.24 3208.85 1415.79 3216.5 1418.34C3219.05 1419.19 3222.02 1420.04 3224.57 1420.89C3232.64 1423.44 3240.71 1425.56 3248.78 1427.26C3251.76 1428.11 3254.73 1428.54 3258.13 1429.39C3265.78 1431.09 3273.85 1432.79 3281.5 1434.48C3283.2 1434.91 3284.47 1434.91 3286.17 1435.33C3288.72 1435.76 3291.69 1436.18 3294.24 1436.61C3298.06 1437.03 3301.46 1437.88 3305.29 1438.31C3306.99 1438.73 3308.69 1438.73 3310.39 1439.16C3312.51 1439.58 3315.06 1440.01 3317.61 1440.01C3324.4 1440.86 3331.63 1441.71 3338.42 1442.56C3340.55 1442.98 3343.1 1442.98 3345.22 1443.41H3345.65C3348.62 1443.83 3351.59 1443.83 3354.57 1444.26C3357.54 1444.68 3360.52 1444.68 3363.49 1444.68C3365.19 1444.68 3367.31 1445.11 3369.01 1445.11C3372.41 1445.11 3375.39 1445.53 3378.36 1445.53C3382.61 1445.53 3386.43 1445.96 3390.68 1445.96C3394.93 1445.96 3398.75 1445.96 3403 1445.96C3405.97 1445.96 3408.95 1445.96 3411.92 1445.96C3591.2 1443.41 3752.22 1367.36 3867.35 1246.71C3867.35 1246.71 3867.35 1246.28 3867.77 1246.28C3880.52 1234.81 3869.47 1173.64 3818.06 1134.97C3753.49 1086.12 3598.85 1055.53 3598.85 1055.53C3598.85 1055.53 3538.95 1045.76 3316.76 1092.07C3186.76 1119.26 3087.77 1158.77 3032.54 1265.82C3021.07 1287.92 3009.6 1321.9 3049.96 1339.75Z" fill="white"/>
<path d="M3315.48 1087.39C3233.91 1103.96 3146.82 1121.8 3079.7 1175.76C3057.18 1194.03 3042.31 1220.79 3029.99 1246.71C3024.04 1259.45 3018.1 1272.62 3013.42 1286.64C3010.88 1295.99 3007.05 1306.61 3009.18 1317.65C3009.6 1320.63 3012.15 1324.45 3014.27 1326.58C3024.04 1336.35 3034.67 1342.29 3045.29 1349.94C3107.74 1393.28 3179.54 1423.86 3253.88 1440.01C3419.57 1476.12 3598.85 1448.08 3744.57 1360.99C3793 1331.67 3837.61 1295.99 3875.84 1253.93C3880.09 1248.83 3880.09 1240.33 3880.09 1234.81C3879.67 1222.07 3876.27 1209.75 3872.02 1198.28C3861.82 1171.94 3848.65 1145.6 3826.14 1127.33C3809.99 1116.28 3792.57 1106.94 3774.73 1099.29C3718.65 1075.5 3659.6 1058.93 3598.85 1052.13C3593.75 1051.71 3592.9 1058.93 3598 1059.78C3656.2 1071.67 3713.98 1089.52 3767.93 1113.73C3787.48 1123.5 3808.29 1132 3824.01 1147.29C3838.88 1163.44 3849.5 1183.41 3858 1203.8C3863.52 1216.12 3867.35 1235.66 3865.65 1245.43C3838.88 1277.29 3807.44 1305.33 3773.46 1329.55C3587.38 1459.55 3304.86 1468.05 3106.89 1359.71C3089.05 1349.94 3071.63 1338.9 3055.06 1327.43C3046.99 1321.9 3038.49 1317.23 3032.12 1310.86C3031.69 1310.43 3032.12 1310.86 3032.12 1311.28C3032.12 1311.71 3032.54 1312.13 3032.54 1312.13C3032.12 1307.03 3033.82 1300.24 3035.94 1293.44C3043.59 1268.8 3055.91 1242.88 3069.08 1220.37C3089.89 1186.8 3125.16 1165.56 3160.84 1148.57C3185.48 1137.1 3211.4 1128.18 3237.74 1119.68C3264.08 1111.18 3290.84 1103.96 3317.61 1097.59C3324.4 1095.89 3322.28 1086.12 3315.48 1087.39Z" fill="black"/>
<path d="M2908.91 1603.14H3983.33C3983.33 1603.14 3965.91 1428.11 3899.63 1288.34C3875.42 1237.36 3867.34 1162.59 3819.34 1129.87C3770.06 1096.31 3665.12 1069.55 3628.59 1065.3C3608.19 1062.75 3612.87 1061.05 3598.42 1057.23C3593.75 1069.97 3546.59 1194.87 3433.59 1240.76C3336.3 1280.27 3278.52 1253.93 3269.6 1210.17C3264.08 1182.13 3281.5 1136.25 3290.42 1121.38C3295.51 1117.13 3298.91 1110.76 3300.61 1104.38L3304.01 1090.36C3296.36 1088.66 3289.14 1086.54 3281.5 1084.42C3277.67 1085.27 3273.42 1084.84 3270.02 1086.97C3234.34 1106.51 3126.85 1134.12 3070.78 1193.17C3048.68 1216.12 3014.27 1297.68 3008.75 1350.79C2993.03 1496.51 2908.91 1603.14 2908.91 1603.14Z" fill="white"/>
<path d="M2902.96 1605.69C3221.59 1606.54 3668.94 1610.36 3982.9 1609.09C3986.72 1609.09 3989.7 1605.69 3989.27 1601.87C3985.45 1571.7 3980.35 1542.39 3974.4 1512.65C3958.68 1431.51 3934.89 1351.64 3899.21 1277.29C3884.76 1242.46 3877.54 1205.92 3860.12 1171.93C3849.93 1151.54 3834.63 1132 3814.24 1120.53C3781.53 1100.99 3745.42 1088.67 3709.3 1077.62C3687.64 1071.25 3665.55 1065.3 3643.45 1061.05C3632.41 1058.5 3621.36 1058.93 3611.17 1054.68C3605.64 1052.55 3595.02 1046.18 3591.62 1054.25C3560.61 1134.55 3500.71 1210.59 3417.02 1239.06C3373.68 1254.78 3298.49 1267.95 3276.4 1214.84C3269.6 1194.87 3275.97 1173.21 3281.92 1153.24C3285.32 1143.04 3289.57 1132.42 3294.66 1123.93L3293.39 1125.2C3301.04 1118.83 3305.28 1108.63 3306.56 1099.29L3308.68 1090.79C3309.53 1087.39 3307.41 1083.99 3304.01 1083.14C3296.36 1081.87 3288.72 1079.32 3281.07 1077.2C3276.82 1077.2 3270.02 1078.04 3264.5 1081.02C3217.77 1102.69 3164.66 1118.4 3120.06 1145.59C3094.99 1160.46 3069.5 1177.88 3053.36 1202.95C3023.62 1252.65 3004.5 1309.16 2998.98 1366.51C2987.08 1448.5 2953.94 1527.1 2906.36 1594.65L2904.66 1596.77L2903.81 1597.62L2903.39 1598.04C2903.39 1598.04 2903.39 1597.62 2902.96 1598.89C2902.54 1601.44 2902.54 1604.42 2902.96 1605.69ZM2914.43 1600.17C2915.28 1601.44 2915.28 1604.42 2914.43 1605.69C2913.59 1606.54 2914.01 1606.12 2914.01 1606.12L2914.43 1605.69L2915.28 1604.42L2916.98 1602.29C2943.75 1561.51 2965.84 1517.75 2981.98 1472.29C2994.73 1438.73 3004.08 1403.89 3009.17 1368.21C3010.87 1355.46 3013 1338.47 3015.97 1326.15C3025.74 1285.37 3041.46 1244.58 3063.98 1209.32C3071.2 1197.85 3081.82 1188.93 3092.44 1180.43C3126 1154.94 3165.51 1139.22 3204.6 1123.93L3244.53 1109.06C3257.7 1103.96 3273.42 1098.44 3281.49 1090.37H3278.1C3285.74 1092.91 3293.39 1095.04 3301.04 1096.74L3296.36 1089.09L3294.24 1097.59C3292.54 1105.23 3290.84 1112.03 3284.89 1117.13C3284.47 1117.55 3284.04 1117.98 3283.62 1118.4C3272.15 1139.22 3265.35 1160.89 3261.95 1184.25C3254.73 1224.61 3280.22 1256.48 3319.3 1264.12C3373.26 1274.74 3437.83 1251.38 3482.44 1221.21C3538.52 1181.7 3578.88 1123.08 3603.52 1059.78L3595.87 1063.6C3599.7 1064.87 3602.25 1066.15 3606.07 1067.85C3609.89 1069.97 3614.57 1071.25 3618.81 1072.1C3618.39 1074.65 3619.66 1067 3617.96 1077.2C3626.04 1078.04 3632.41 1078.47 3640.06 1080.17C3661.72 1083.57 3683.39 1088.67 3704.63 1094.61C3733.1 1102.26 3761.13 1111.61 3787.47 1123.93C3800.64 1130.3 3813.39 1137.1 3823.16 1146.02C3833.36 1154.94 3841.43 1166.84 3848.23 1179.58C3868.19 1218.24 3877.96 1264.55 3898.36 1303.63C3940.84 1398.37 3964.63 1501.61 3976.1 1604.84L3982.47 1598.04C3674.04 1596.77 3227.96 1598.47 2914.43 1600.17Z" fill="black"/>
<path d="M3253.88 1325.3C3268.75 1329.55 3320.58 1275.59 3331.2 1266.25C3340.97 1277.29 3409.79 1355.04 3443.78 1349.94C3481.17 1344.42 3576.75 1280.27 3625.19 1179.58C3651.95 1124.35 3652.8 1090.79 3649.83 1072.52C3648.55 1064.03 3646 1058.5 3644.73 1055.53C3640.48 1045.76 3609.89 1007.95 3602.25 1008.37V1008.8C3598.42 1049.58 3585.25 1089.09 3563.16 1123.5C3535.97 1165.56 3493.06 1216.12 3433.16 1240.33C3335.87 1279.84 3285.32 1240.76 3276.82 1197C3271.3 1168.96 3281.07 1135.82 3289.99 1120.95C3295.09 1116.71 3298.49 1110.33 3300.19 1103.96L3303.59 1089.94C3295.94 1088.24 3288.72 1086.12 3281.07 1083.99C3278.94 1083.14 3276.4 1082.72 3274.27 1081.87C3273 1083.57 3271.3 1085.27 3270.02 1086.97C3252.18 1107.36 3233.49 1135.4 3223.29 1182.98C3206.3 1259.03 3237.31 1320.2 3253.88 1325.3Z" fill="black"/>
<path d="M3332.47 1263.7C3332.47 1263.7 3301.46 1281.54 3302.31 1296.41C3303.16 1311.28 3294.24 1358.44 3294.24 1358.44" stroke="black" stroke-width="3" stroke-miterlimit="10" stroke-linecap="round" stroke-linejoin="round"/>
<path d="M3332.9 1320.2C3327.27 1320.2 3322.7 1315.64 3322.7 1310.01C3322.7 1304.37 3327.27 1299.81 3332.9 1299.81C3338.53 1299.81 3343.1 1304.37 3343.1 1310.01C3343.1 1315.64 3338.53 1320.2 3332.9 1320.2Z" fill="black"/>
<path d="M3329.5 1360.14C3323.87 1360.14 3319.31 1355.57 3319.31 1349.94C3319.31 1344.31 3323.87 1339.74 3329.5 1339.74C3335.13 1339.74 3339.7 1344.31 3339.7 1349.94C3339.7 1355.57 3335.13 1360.14 3329.5 1360.14Z" fill="black"/>
<path d="M3773.03 1603.14L3792.15 1445.53" stroke="#544D4D" stroke-width="3" stroke-miterlimit="10" stroke-linecap="round" stroke-linejoin="round"/>
<path d="M3030.84 1392C3030.84 1392 3043.59 1423.01 3039.76 1454.03C3035.94 1485.04 3024.89 1530.5 3040.61 1603.14" stroke="#544D4D" stroke-width="3" stroke-miterlimit="10" stroke-linecap="round" stroke-linejoin="round"/>
<path d="M3602.25 1008.37C3602.25 1008.37 3465.02 965.888 3273.85 1081.44C3273.85 1081.44 3221.17 1223.34 3253.88 1245.01C3286.59 1266.67 3389.4 1268.8 3461.2 1245.01C3533.42 1221.64 3626.04 1104.81 3602.25 1008.37Z" fill="black"/>
<path d="M3275.55 1200.4C3284.47 1244.16 3342.25 1270.5 3439.54 1230.99C3540.65 1190.2 3584.41 1092.92 3595.45 1064.03C3535.55 951.87 3577.19 874.125 3577.19 874.125C3439.11 862.229 3318.46 1023.67 3318.46 1023.67L3299.77 1103.54C3298.07 1110.33 3294.67 1116.28 3289.57 1120.53C3280.65 1136.25 3270.03 1172.36 3275.55 1200.4Z" fill="white"/>
<path d="M3597.58 1065.3C3589.5 1052.98 3584.41 1038.54 3581.01 1024.52C3574.64 995.203 3572.51 965.464 3572.09 935.725V924.68C3573.36 913.634 3577.18 902.163 3581.43 891.967C3586.96 878.373 3566.99 869.876 3560.62 883.471C3559.77 885.17 3559.77 888.144 3559.77 889.843C3558.49 947.621 3555.94 1021.97 3592.48 1069.97C3595.03 1072.52 3600.13 1068.7 3597.58 1065.3Z" fill="black"/>
<path d="M3313.79 1022.82C3307.41 1026.64 3305.29 1031.74 3304.44 1036.84C3301.89 1047.03 3302.74 1058.08 3300.19 1068.7C3298.07 1078.9 3291.7 1088.67 3290 1099.29C3287.87 1110.33 3281.5 1133.7 3278.95 1145.17C3278.1 1147.72 3279.8 1150.69 3282.77 1151.12C3284.47 1151.54 3285.75 1151.12 3287.02 1150.27C3292.55 1145.6 3295.09 1140.92 3298.49 1134.97C3304.02 1124.78 3307.84 1115.43 3311.24 1103.96C3314.21 1093.77 3312.94 1082.72 3315.49 1072.1C3317.61 1061.9 3323.56 1052.13 3325.68 1041.51C3326.96 1036.41 3327.38 1030.89 3323.56 1024.52C3321.01 1021.97 3316.76 1021.12 3313.79 1022.82Z" fill="black"/>
<path d="M3283.2 1134.97C3364.34 1130.73 3430.62 1105.24 3495.19 990.104C3440.81 1038.11 3376.66 1056.38 3309.11 1064.88L3300.19 1103.96C3298.49 1110.76 3288.3 1130.73 3283.2 1134.97Z" fill="black"/>
<path d="M3286.59 1119.25C3272.15 1146.44 3263.65 1180.43 3272.58 1210.59C3279.37 1231.84 3298.91 1247.56 3320.16 1253.5C3369.44 1266.67 3426.37 1245.86 3470.12 1222.49C3524.08 1192.33 3564.01 1141.77 3589.5 1086.54C3591.2 1082.29 3585.25 1078.9 3582.71 1083.14C3573.78 1100.99 3563.59 1118.41 3552.12 1134.12C3540.65 1150.27 3527.48 1165.14 3512.61 1178.31C3469.27 1217.39 3410.65 1241.61 3352.02 1241.61C3291.69 1239.91 3268.75 1208.05 3282.77 1149.42C3284.9 1140.07 3288.29 1130.3 3292.97 1122.23C3295.52 1118.83 3289.14 1115.01 3286.59 1119.25Z" fill="black"/>
<path d="M3122.18 609.027C3114.54 644.713 3120.49 668.504 3123.88 767.066C3127.28 863.929 3155.32 1000.73 3189.73 1035.14C3216.07 1061.05 3300.62 1081.44 3375.81 1062.33C3414.05 1052.56 3446.34 1030.46 3472.67 1014.75C3505.81 994.778 3534.7 933.177 3558.49 893.667C3577.18 862.654 3575.49 900.04 3599.7 873.275C3633.26 836.739 3673.62 763.242 3653.66 633.242C3621.37 422.523 3454.41 397.883 3330.78 421.249C3206.3 444.615 3142.58 515.138 3122.18 609.027Z" fill="white"/>
<path d="M3578.46 910.661C3588.23 894.517 3600.97 880.073 3612.44 864.778C3629.44 841.412 3642.18 814.648 3650.68 787.033C3687.64 668.929 3665.12 514.288 3553.39 444.615C3451.86 380.04 3254.73 403.406 3172.31 491.772C3141.3 523.635 3121.33 565.269 3112.84 608.602C3112.41 611.151 3111.14 615.824 3110.71 618.373C3110.29 620.497 3109.01 623.046 3109.44 625.595C3110.29 634.942 3111.99 644.288 3112.84 653.635C3119.21 710.138 3117.51 767.916 3124.73 824.419C3131.1 883.896 3139.6 943.373 3157.44 1000.73C3162.97 1018.14 3173.59 1033.86 3187.61 1045.33C3219.05 1071.67 3260.25 1080.6 3299.76 1082.29C3378.78 1086.12 3459.08 1058.08 3504.96 991.38C3506.66 988.831 3503.26 985.857 3501.14 988.406C3462.9 1029.62 3411.07 1055.95 3355.84 1061.9C3294.67 1069.12 3202.48 1063.6 3175.71 998.177C3144.7 905.563 3128.56 807.426 3126.86 710.138C3126.86 686.347 3128.13 662.556 3128.13 638.341C3128.13 635.367 3127.71 628.569 3127.71 625.595C3127.71 626.02 3127.71 626.02 3127.71 625.595C3131.1 617.099 3132.38 607.752 3134.93 599.256C3144.27 563.994 3161.27 530.432 3185.48 503.667C3265.78 413.602 3444.63 391.086 3544.9 458.635C3624.34 511.314 3645.58 612.426 3651.1 701.641C3655.78 768.341 3636.24 833.765 3585.68 879.648L3565.71 900.465C3557.22 909.811 3571.66 920.857 3578.46 910.661Z" fill="black"/>
<path d="M3528.33 775.562C3528.33 775.562 3541.5 711.837 3603.52 719.484C3657.05 726.281 3675.74 854.582 3554.24 890.268" fill="white"/>
<path d="M3559.77 834.615C3569.54 829.093 3576.33 819.746 3576.76 808.276C3576.33 799.779 3575.06 790.008 3577.18 781.511C3578.46 773.439 3586.96 771.315 3593.33 771.74C3600.13 773.014 3604.37 781.511 3605.65 788.308C3605.65 788.733 3606.07 790.008 3606.07 790.432C3606.5 792.557 3609.9 792.557 3610.75 790.432C3616.27 773.864 3603.95 755.596 3586.11 757.72C3561.04 759.419 3557.64 785.759 3562.32 805.727C3564.86 814.223 3561.47 821.87 3556.79 829.093L3555.94 830.367C3553.82 832.916 3557.22 836.315 3559.77 834.615Z" fill="black"/>
<path d="M3219.89 730.529C3213.52 760.692 3201.63 788.731 3186.76 815.071C3173.59 847.359 3207.57 877.947 3237.74 876.672C3241.14 876.672 3241.56 871.999 3238.59 871.15C3219.47 865.202 3202.05 852.457 3199.08 832.914C3197.8 826.967 3199.5 821.869 3202.47 816.771C3216.49 790.431 3224.99 760.267 3222.87 730.529C3222.87 728.404 3219.89 728.404 3219.89 730.529Z" fill="black"/>
<path d="M3530.45 775.988C3540.22 750.923 3561.46 727.132 3589.93 727.557C3592.48 727.132 3596.73 727.981 3599.27 727.981C3606.5 728.406 3612.44 730.955 3617.97 736.053C3645.16 763.243 3640.48 811.249 3618.39 841.413C3610.74 852.034 3600.97 861.38 3589.93 869.027C3578.88 876.674 3566.56 882.622 3553.39 887.72C3550.42 888.57 3551.69 893.243 3554.67 892.818C3583.13 886.87 3610.32 872.851 3629.01 849.485C3657.9 814.648 3663.85 756.446 3629.44 722.459C3621.79 715.661 3611.17 710.563 3600.55 710.563C3597.15 710.563 3592.05 709.714 3588.65 710.563C3570.81 711.413 3553.82 720.334 3542.77 734.354C3533 746.249 3527.48 760.694 3525.78 775.138C3525.78 777.687 3529.6 778.537 3530.45 775.988Z" fill="black"/>
<path d="M3252.18 919.157C3279.37 945.072 3330.78 924.255 3344.37 892.817C3346.07 888.993 3341.82 885.595 3338.42 887.294C3331.2 891.118 3324.83 894.941 3318.03 897.915C3298.49 906.837 3278.1 914.059 3256.43 911.935C3252.18 911.085 3249.21 916.183 3252.18 919.157Z" fill="#040404"/>
<path d="M3315.91 685.497C3306.56 686.771 3299.34 677 3302.74 667.654C3304.44 662.556 3307.41 657.883 3312.09 654.909C3326.53 645.987 3380.49 645.137 3408.95 665.53C3434.44 684.222 3358.39 679.549 3315.91 685.497Z" fill="black"/>
<path d="M3198.23 690.17C3205.88 690.17 3210.55 680.399 3206.73 672.327C3204.6 668.079 3201.63 664.255 3197.38 662.131C3184.21 655.758 3148.95 659.582 3133.23 681.249C3119.21 700.366 3162.97 689.745 3198.23 690.17Z" fill="black"/>
<path d="M3331.63 740.301C3353.3 730.955 3377.94 733.504 3400.45 738.602C3403 739.452 3404.7 736.053 3402.58 734.353C3383.03 718.21 3346.07 716.086 3330.35 738.177C3329.08 739.027 3329.93 740.726 3331.63 740.301Z" fill="black"/>
<path d="M3164.67 749.223C3174.86 742 3189.73 743.275 3201.63 744.549C3205.88 744.974 3210.13 745.824 3214.8 747.098C3216.07 747.523 3217.35 745.399 3216.5 744.549L3215.65 743.7C3205.03 732.654 3188.46 730.105 3174.02 735.628C3168.92 737.752 3163.82 740.726 3161.27 746.674C3160 748.798 3162.97 750.922 3164.67 749.223Z" fill="black"/>
<path d="M3133.21 848.208C3132.36 873.273 3131.09 889.417 3131.09 889.417L3083.08 876.247C3083.08 876.247 3097.52 792.979 3090.3 721.182C3076.28 585.234 3090.3 546.999 3090.3 546.999C3097.52 511.737 3120.89 480.299 3172.72 470.953C3188.44 461.182 3205.86 453.534 3224.98 447.162C3293.37 422.946 3443.77 372.391 3559.32 448.436C3674.88 524.482 3679.13 665.953 3694.84 760.267C3710.56 854.58 3813.37 923.404 3813.37 923.404L3789.58 957.391C3776.84 966.737 3742.43 924.678 3736.9 923.404C3731.38 922.129 3767.92 966.312 3767.92 966.312C3758.57 1004.12 3718.64 1026.21 3718.64 1026.21C3718.64 1026.21 3656.61 986.28 3669.35 1004.55C3682.1 1022.82 3705.89 1037.26 3705.89 1037.26C3705.89 1037.26 3643.86 1092.06 3618.37 1087.39C3592.88 1082.72 3556.35 1024.51 3559.32 1037.26C3561.87 1050.01 3582.69 1096.74 3582.69 1096.74L3549.13 1115.85C3443.34 1081.87 3527.46 948.469 3467.13 866.476C3407.23 784.482 3483.7 740.724 3435.69 713.535C3423.37 706.312 3411.48 698.665 3400.86 690.168L3332.03 702.064C3332.03 702.064 3287.43 701.214 3300.17 611.999C3304.84 579.286 3293.8 544.45 3289.55 532.979C3289.13 532.979 3289.13 532.979 3288.7 532.979C3290.4 544.45 3293.37 578.436 3283.6 622.195C3270.01 683.796 3312.49 707.587 3312.49 707.587L3269.58 721.182C3225.83 699.515 3261.09 630.267 3269.58 575.038C3272.13 557.195 3268.73 546.149 3262.79 539.776C3233.05 548.698 3213.93 558.894 3212.23 549.972C3142.13 567.391 3141.28 659.58 3139.16 662.129C3140.01 679.123 3142.13 708.012 3142.56 745.397C3142.56 762.816 3140.86 796.378 3142.13 815.92C3143.41 839.711 3145.53 861.802 3148.93 883.894C3155.3 917.881 3165.07 953.567 3179.09 975.659C3207.13 1019.42 3229.22 1056.38 3269.58 1075.07C3309.52 1093.34 3354.98 1097.16 3354.98 1097.16C3354.98 1097.16 3342.23 1105.23 3312.07 1106.93C3281.9 1108.63 3260.24 1096.74 3238.15 1093.34C3216.05 1089.51 3165.5 1103.53 3165.5 1103.53C3159.98 1093.76 3163.8 1057.65 3158.28 1064.87C3152.75 1072.1 3153.6 1103.53 3153.6 1103.53L3108.15 1111.61C3098.37 1088.67 3097.1 1047.88 3097.1 1047.88C3097.1 1041.08 3097.52 1034.29 3097.95 1026.64C3105.17 954.417 3133.64 942.097 3133.21 848.208Z" fill="black"/>
<path d="M3309.53 826.543C3329.07 826.968 3389.4 827.393 3408.09 827.818C3440.38 828.242 3464.6 800.203 3461.62 768.34C3461.2 757.72 3461.62 742.85 3461.2 732.229C3460.35 704.615 3435.71 681.249 3408.09 682.099L3336.3 682.948C3330.77 682.948 3315.06 683.373 3309.53 683.373C3286.59 682.948 3264.92 699.942 3259.83 722.458C3258.13 728.831 3258.55 735.628 3258.55 741.151V777.262C3258.98 804.027 3282.77 826.968 3309.53 826.543ZM3309.53 817.197C3287.44 818.046 3267.05 798.929 3266.62 776.837C3266.2 765.367 3266.62 753.046 3266.62 741.151C3264.07 715.236 3283.62 691.445 3309.96 692.295C3328.23 692.72 3389.4 693.144 3408.52 693.569C3431.46 693.569 3451 714.386 3449.3 737.327C3449.3 740.301 3449.3 747.948 3449.3 750.922C3448.88 760.269 3450.15 776.412 3448.03 784.909C3443.78 802.752 3426.79 816.347 3408.52 816.347H3399.6C3387.28 816.347 3322.28 817.197 3309.53 817.197Z" fill="black"/>
<path d="M3138.32 694.419L3171.89 694.844C3181.23 695.268 3192.28 693.569 3200.35 699.092C3208 704.19 3211.4 713.536 3210.97 722.458C3210.97 733.504 3210.97 744.974 3211.4 756.02L3211.82 754.321C3205.87 775.138 3197.8 795.105 3185.48 812.523L3189.73 809.974C3186.33 810.824 3180.38 810.824 3176.99 810.824C3164.24 811.249 3149.37 812.099 3136.63 812.099C3124.73 812.099 3113.26 803.177 3110.71 791.282C3109.86 787.883 3109.86 781.935 3109.86 778.536C3109.86 760.268 3109.44 742.425 3110.29 724.157C3109.44 708.014 3121.76 693.569 3138.32 694.419ZM3138.32 681.674C3115.81 681.674 3100.09 703.34 3103.91 724.582C3104.76 742.85 3104.34 760.693 3104.34 778.961C3102.21 800.203 3114.96 819.321 3137.05 821.02C3146.4 821.445 3155.32 821.445 3164.24 821.87C3168.91 821.87 3180.38 822.719 3184.63 822.719C3186.76 823.144 3190.16 822.719 3192.28 822.719C3193.98 822.719 3195.68 821.445 3196.53 820.17C3209.7 800.628 3219.04 778.961 3224.57 756.445C3224.57 742.001 3225.84 727.556 3224.57 713.112C3222.02 696.118 3206.72 681.674 3189.31 681.249C3177.41 680.824 3150.22 681.674 3138.32 681.674Z" fill="black"/>
<path d="M3263.23 720.759C3251.76 715.661 3239.01 713.537 3226.27 714.386C3222.02 714.811 3217.77 716.086 3213.95 719.484L3208.42 724.157C3202.9 728.831 3209.7 736.903 3215.22 732.229C3222.02 726.282 3230.09 727.131 3238.16 727.556C3246.23 728.406 3253.88 730.105 3261.53 733.079C3268.75 736.053 3273.42 725.432 3266.63 722.033L3263.23 720.759Z" fill="black"/>
<path d="M3454.4 736.053C3457.38 742.85 3460.78 743.7 3466.3 743.275L3478.62 743.7C3503.26 743.7 3528.33 743.275 3552.97 739.451C3561.46 739.027 3561.89 727.131 3553.39 726.706L3454.83 723.308C3451.85 723.308 3449.73 726.281 3451 728.831L3454.4 736.053Z" fill="black"/>
<path d="M2828.62 515.137C2570.75 1011.77 3024.05 1572.13 3564.44 1435.33C3807.02 1375.01 4002.02 1164.71 4042.38 917.882C4088.26 672.327 3977.38 408.503 3770.06 269.582C3485.84 74.1565 3092.02 139.157 2888.52 418.699C2887.25 419.974 2887.67 422.098 2889.37 423.372C2890.65 424.647 2892.77 424.222 2894.05 422.523C2922.09 386.412 2953.95 353.699 2988.78 324.385C3046.14 275.529 3113.26 237.294 3184.21 211.379C3545.32 80.529 3941.69 298.046 4020.71 675.725C4109.93 1098.86 3750.09 1488.44 3321.01 1430.24C2990.06 1388.6 2744.08 1083.14 2771.27 750.921C2777.22 670.627 2798.46 591.183 2833.72 518.111C2834.57 516.836 2833.72 515.137 2832.44 514.287C2831.17 513.438 2829.47 513.863 2828.62 515.137Z" fill="#21FF7E"/>
</g>
<path d="M2477.04 1160.54H1475.44V1190H2477.04V1160.54Z" fill="black"/>
<path d="M2506.53 689.22H2477.07V1160.56H2506.53V689.22Z" fill="black"/>
<path d="M1475.46 689.22H1446V1160.56H1475.46V689.22Z" fill="black"/>
<path d="M1828.96 689.22H1799.5V1160.56H1828.96V689.22Z" fill="black"/>
<path d="M2064.61 777.571H1475.44V807.03H2064.61V777.571Z" fill="black"/>
<path d="M2094.09 718.689H2064.63V865.983H2094.09V718.689Z" fill="black"/>
<path d="M2270.85 718.689H2241.39V865.983H2270.85V718.689Z" fill="black"/>
<path d="M2241.39 689.22H2094.1V718.678H2241.39V689.22Z" fill="black"/>
<path d="M2182.47 748.127H2153.01V836.503H2182.47V748.127Z" fill="black"/>
<path d="M2211.92 748.127H2123.54V777.586H2211.92V748.127Z" fill="black"/>
<path d="M2241.39 865.971H2094.1V895.429H2241.39V865.971Z" fill="black"/>
<path d="M2506.52 777.571H2241.39V807.03H2506.52V777.571Z" fill="black"/>
<path d="M2477.07 630.286H2447.61V689.204H2477.07V630.286Z" fill="black"/>
<path d="M2388.69 630.286H2359.23V689.204H2388.69V630.286Z" fill="black"/>
<path d="M2418.13 689.22H2388.67V748.137H2418.13V689.22Z" fill="black"/>
<path d="M2418.14 718.689H2241.39V748.148H2418.14V718.689Z" fill="black"/>
<path d="M2447.6 571.378H2418.14V630.295H2447.6V571.378Z" fill="black"/>
<path d="M2359.22 571.378H2329.76V630.295H2359.22V571.378Z" fill="black"/>
<path d="M2418.13 541.908H2388.67V571.367H2418.13V541.908Z" fill="black"/>
<path d="M2388.69 512.438H2359.23V541.896H2388.69V512.438Z" fill="black"/>
<path d="M1593.3 512.438H1563.84V541.896H1593.3V512.438Z" fill="black"/>
<path d="M1711.15 512.438H1681.69V541.896H1711.15V512.438Z" fill="black"/>
<path d="M1799.5 512.438H1770.04V541.896H1799.5V512.438Z" fill="black"/>
<path d="M2300.29 512.438H2270.83V541.896H2300.29V512.438Z" fill="black"/>
<path d="M1563.84 541.908H1534.38V571.367H1563.84V541.908Z" fill="black"/>
<path d="M1740.59 541.908H1711.13V571.367H1740.59V541.908Z" fill="black"/>
<path d="M2329.76 541.908H1799.5V571.367H2329.76V541.908Z" fill="black"/>
<path d="M1534.37 571.378H1504.91V630.295H1534.37V571.378Z" fill="black"/>
<path d="M1504.9 630.286H1475.44V689.204H1504.9V630.286Z" fill="black"/>
<path d="M1799.5 630.286H1770.04V689.204H1799.5V630.286Z" fill="black"/>
<path d="M1740.59 689.22H1711.13V748.137H1740.59V689.22Z" fill="black"/>
<path d="M1534.37 689.22H1504.91V748.137H1534.37V689.22Z" fill="black"/>
<path d="M1740.58 718.689H1504.91V748.148H1740.58V718.689Z" fill="black"/>
<path d="M1711.13 630.286H1534.38V659.745H1711.13V630.286Z" fill="black"/>
<path d="M1563.84 630.286H1534.38V689.204H1563.84V630.286Z" fill="black"/>
<path d="M1593.3 571.378H1563.84V630.295H1593.3V571.378Z" fill="black"/>
<path d="M1652.2 541.908H1593.28V571.367H1652.2V541.908Z" fill="black"/>
<path d="M1711.15 630.286H1681.69V689.204H1711.15V630.286Z" fill="black"/>
<path d="M1681.68 571.378H1652.22V630.295H1681.68V571.378Z" fill="black"/>
<path d="M1887.87 630.286H1858.41V689.204H1887.87V630.286Z" fill="black"/>
<path d="M1917.34 689.22H1887.88V748.137H1917.34V689.22Z" fill="black"/>
<path d="M2064.64 718.689H1917.35V748.148H2064.64V718.689Z" fill="black"/>
<path d="M2064.63 836.506H1887.88V865.965H2064.63V836.506Z" fill="black"/>
<path d="M2418.14 924.884H1887.88V954.343H2418.14V924.884Z" fill="black"/>
<path d="M2418.14 1013.26H1887.88V1042.72H2418.14V1013.26Z" fill="black"/>
<path d="M2418.14 1101.63H1887.88V1131.09H2418.14V1101.63Z" fill="black"/>
<path d="M1917.34 836.506H1887.88V1131.09H1917.34V836.506Z" fill="black"/>
<path d="M1740.59 836.506H1711.13V1131.09H1740.59V836.506Z" fill="black"/>
<path d="M1563.84 836.506H1534.38V1131.09H1563.84V836.506Z" fill="black"/>
<path d="M1740.59 836.506H1534.38V865.965H1740.59V836.506Z" fill="black"/>
<path d="M1740.59 1101.63H1534.38V1131.09H1740.59V1101.63Z" fill="black"/>
<path d="M1740.59 1013.26H1534.38V1042.72H1740.59V1013.26Z" fill="black"/>
<path d="M1740.59 924.884H1534.38V954.343H1740.59V924.884Z" fill="black"/>
<path d="M2418.13 836.506H2388.67V1131.09H2418.13V836.506Z" fill="black"/>
<path d="M2418.12 836.506H2270.83V865.965H2418.12V836.506Z" fill="black"/>
<path d="M2359.22 630.286H1887.88V659.745H2359.22V630.286Z" fill="black"/>
<path d="M1770.03 571.378H1740.57V630.295H1770.03V571.378Z" fill="black"/>
<path d="M1858.43 571.378H1828.97V630.295H1858.43V571.378Z" fill="black"/>
<path d="M2359.21 483H1593.28V512.459H2359.21V483Z" fill="black"/>
<path d="M1681.66 512.438H1593.28V541.896H1681.66V512.438Z" fill="#FFE303"/>
<path d="M1593.3 541.908H1563.84V571.367H1593.3V541.908Z" fill="#FFE303"/>
<path d="M1563.84 571.378H1534.38V600.837H1563.84V571.378Z" fill="#FFE303"/>
<path d="M1534.37 630.286H1504.91V659.745H1534.37V630.286Z" fill="#FFE303"/>
<path d="M1504.9 689.22H1475.44V718.678H1504.9V689.22Z" fill="#FFE303"/>
<path d="M1799.5 689.22H1770.04V718.678H1799.5V689.22Z" fill="#FFE303"/>
<path d="M1770.03 630.286H1740.57V659.745H1770.03V630.286Z" fill="#FFE303"/>
<path d="M1740.59 571.378H1711.13V600.837H1740.59V571.378Z" fill="#FFE303"/>
<path d="M1711.15 541.908H1681.69V571.367H1711.15V541.908Z" fill="#FFE303"/>
<path d="M1563.84 600.842H1534.38V630.301H1563.84V600.842Z" fill="#F4A716"/>
<path d="M1534.37 659.751H1504.91V689.21H1534.37V659.751Z" fill="#F4A716"/>
<path d="M1504.9 718.689H1475.44V748.148H1504.9V718.689Z" fill="#F4A716"/>
<path d="M1770.03 689.22H1740.57V718.678H1770.03V689.22Z" fill="#F4A716"/>
<path d="M1770.03 659.751H1740.57V689.21H1770.03V659.751Z" fill="#F4A716"/>
<path d="M1740.59 600.842H1711.13V689.218H1740.59V600.842Z" fill="#F4A716"/>
<path d="M1681.68 541.908H1652.22V571.367H1681.68V541.908Z" fill="#F4A716"/>
<path d="M1622.74 571.378H1593.28V600.837H1622.74V571.378Z" fill="#5D2E1C"/>
<path d="M1652.21 571.378H1622.75V600.837H1652.21V571.378Z" fill="#5D2E1C"/>
<path d="M1652.21 600.842H1622.75V630.301H1652.21V600.842Z" fill="#834D29"/>
<path d="M1593.3 895.414H1563.84V924.873H1593.3V895.414Z" fill="#834D29"/>
<path d="M1711.15 983.818H1681.69V1013.28H1711.15V983.818Z" fill="#834D29"/>
<path d="M1711.13 895.414H1622.75V924.873H1711.13V895.414Z" fill="#834D29"/>
<path d="M1652.22 983.818H1563.84V1013.28H1652.22V983.818Z" fill="#834D29"/>
<path d="M1711.11 1072.16H1593.28V1101.62H1711.11V1072.16Z" fill="#834D29"/>
<path d="M1711.13 954.349H1563.84V983.807H1711.13V954.349Z" fill="#834D29"/>
<path d="M1711.13 1042.7H1563.84V1072.16H1711.13V1042.7Z" fill="#834D29"/>
<path d="M1711.13 689.22H1563.84V718.678H1711.13V689.22Z" fill="#834D29"/>
<path d="M1681.66 659.751H1593.28V689.21H1681.66V659.751Z" fill="#834D29"/>
<path d="M1622.74 600.842H1593.28V630.301H1622.74V600.842Z" fill="#5D2E1C"/>
<path d="M1593.3 659.751H1563.84V689.21H1593.3V659.751Z" fill="#5D2E1C"/>
<path d="M1563.84 689.22H1534.38V718.678H1563.84V689.22Z" fill="#5D2E1C"/>
<path d="M1711.13 865.971H1563.84V895.429H1711.13V865.971Z" fill="#5D2E1C"/>
<path d="M1622.74 895.414H1593.28V924.873H1622.74V895.414Z" fill="#5D2E1C"/>
<path d="M1681.68 983.818H1652.22V1013.28H1681.68V983.818Z" fill="#5D2E1C"/>
<path d="M1593.3 1072.16H1563.84V1101.62H1593.3V1072.16Z" fill="#5D2E1C"/>
<path d="M1711.15 600.842H1681.69V630.301H1711.15V600.842Z" fill="#F4A716"/>
<path d="M1711.15 571.378H1681.69V600.837H1711.15V571.378Z" fill="#F4A716"/>
<path d="M1799.49 718.689H1740.57V777.607H1799.49V718.689Z" fill="#F4A716"/>
<path d="M1799.49 748.127H1475.44V777.586H1799.49V748.127Z" fill="#F4A716"/>
<path d="M1770.05 512.438H1711.13V541.896H1770.05V512.438Z" fill="#FFE303"/>
<path d="M1828.96 571.378H1770.04V600.837H1828.96V571.378Z" fill="#FFE303"/>
<path d="M2418.15 571.378H2359.23V600.837H2418.15V571.378Z" fill="#FFE303"/>
<path d="M2418.13 600.842H2388.67V630.301H2418.13V600.842Z" fill="#FFE303"/>
<path d="M2447.6 630.286H2418.14V689.204H2447.6V630.286Z" fill="#FFE303"/>
<path d="M2477.07 689.22H2447.61V718.678H2477.07V689.22Z" fill="#FFE303"/>
<path d="M1887.87 689.22H1858.41V718.678H1887.87V689.22Z" fill="#FFE303"/>
<path d="M1858.43 630.286H1828.97V659.745H1858.43V630.286Z" fill="#FFE303"/>
<path d="M1828.96 600.842H1799.5V630.301H1828.96V600.842Z" fill="#FFE303"/>
<path d="M1799.49 541.908H1740.57V571.367H1799.49V541.908Z" fill="white"/>
<path d="M2388.68 541.908H2329.76V571.367H2388.68V541.908Z" fill="white"/>
<path d="M2359.21 512.438H2300.29V541.896H2359.21V512.438Z" fill="#FFE303"/>
<path d="M1799.49 836.506H1740.57V1131.09H1799.49V836.506Z" fill="#F0A815"/>
<path d="M1534.36 836.506H1475.44V1131.09H1534.36V836.506Z" fill="#F0A815"/>
<path d="M1799.49 807.035H1475.44V836.494H1799.49V807.035Z" fill="#D68917"/>
<path d="M1799.49 1131.1H1475.44V1160.56H1799.49V1131.1Z" fill="#D68917"/>
<path d="M2477.06 1131.1H1828.97V1160.56H2477.06V1131.1Z" fill="#EFA91E"/>
<path d="M1887.89 924.884H1828.97V1131.09H1887.89V924.884Z" fill="#FFCA0C"/>
<path d="M2477.06 924.884H2418.14V1131.09H2477.06V924.884Z" fill="#FFCA0A"/>
<path d="M1887.89 895.414H1828.97V807.038H1887.89V895.414Z" fill="#F0A815"/>
<path d="M2064.64 836.506H1828.97V807.047H2064.64V836.506Z" fill="#F0A815"/>
<path d="M2477.04 836.506H2270.83V807.047H2477.04V836.506Z" fill="#F0A815"/>
<path d="M2477.06 895.414H2418.14V836.497H2477.06V895.414Z" fill="#FFCB0A"/>
<path d="M1887.89 924.884H1828.97V895.425H1887.89V924.884Z" fill="#FEE610"/>
<path d="M2064.64 895.414H1917.35V865.955H2064.64V895.414Z" fill="#5D2E1C"/>
<path d="M2094.1 924.884H1917.35V895.425H2094.1V924.884Z" fill="#804E2A"/>
<path d="M2241.39 924.884H2094.1V895.425H2241.39V924.884Z" fill="#5E2D1F"/>
<path d="M2359.22 924.884H2241.39V895.425H2359.22V924.884Z" fill="#7F4D2A"/>
<path d="M2094.09 895.414H2064.63V865.955H2094.09V895.414Z" fill="#451F16"/>
<path d="M2270.85 895.414H2241.39V865.955H2270.85V895.414Z" fill="#451F16"/>
<path d="M2388.67 895.414H2270.83V865.955H2388.67V895.414Z" fill="#5D2E1C"/>
<path d="M2388.69 924.884H2359.23V865.966H2388.69V924.884Z" fill="#5D2E1C"/>
<path d="M2035.16 983.818H2005.7V954.36H2035.16V983.818Z" fill="#5D2E1C"/>
<path d="M2300.29 689.22H2270.83V659.761H2300.29V689.22Z" fill="#5D2E1C"/>
<path d="M1976.28 630.286H1946.82V600.827H1976.28V630.286Z" fill="#5D2E1C"/>
<path d="M2211.94 600.842H2182.48V571.383H2211.94V600.842Z" fill="#5D2E1C"/>
<path d="M2182.47 1013.26H2153.01V983.801H2182.47V1013.26Z" fill="#5D2E1C"/>
<path d="M2329.75 1072.16H2300.29V1042.7H2329.75V1072.16Z" fill="#5D2E1C"/>
<path d="M2359.22 1072.16H2329.76V1042.7H2359.22V1072.16Z" fill="#5D2E1C"/>
<path d="M1946.81 1101.63H1917.35V1072.17H1946.81V1101.63Z" fill="#5D2E1C"/>
<path d="M2388.69 1101.63H2359.23V1042.71H2388.69V1101.63Z" fill="#5D2E1C"/>
<path d="M2388.69 1013.26H2359.23V954.342H2388.69V1013.26Z" fill="#5D2E1C"/>
<path d="M2477.06 924.884H2418.14V895.425H2477.06V924.884Z" fill="#FFE301"/>
<path d="M2005.73 954.349H1917.35V983.807H2005.73V954.349Z" fill="#824C28"/>
<path d="M2359.22 954.349H2035.17V983.807H2359.22V954.349Z" fill="#824C28"/>
<path d="M2153.02 983.818H1917.35V1013.28H2153.02V983.818Z" fill="#824C28"/>
<path d="M2359.23 983.818H2182.48V1013.28H2359.23V983.818Z" fill="#824C28"/>
<path d="M2300.31 1072.16H1917.35V1042.7H2300.31V1072.16Z" fill="#824C28"/>
<path d="M2359.24 1101.63H1946.82V1072.17H2359.24V1101.63Z" fill="#824C28"/>
<path d="M2064.64 748.127H1828.97V777.586H2064.64V748.127Z" fill="#FCC80F"/>
<path d="M1887.89 718.689H1828.97V748.148H1887.89V718.689Z" fill="#FCC80F"/>
<path d="M1858.43 689.22H1828.97V718.678H1858.43V689.22Z" fill="#FCC80F"/>
<path d="M1858.42 659.751H1799.5V689.21H1858.42V659.751Z" fill="#FCC80F"/>
<path d="M1828.96 630.286H1799.5V659.745H1828.96V630.286Z" fill="#FCC80F"/>
<path d="M1799.5 600.842H1770.04V630.301H1799.5V600.842Z" fill="#FCC80F"/>
<path d="M2477.04 748.127H2270.83V777.586H2477.04V748.127Z" fill="#FCC80F"/>
<path d="M2477.07 718.689H2447.61V748.148H2477.07V718.689Z" fill="#FCC80F"/>
<path d="M2447.6 689.22H2418.14V748.137H2447.6V689.22Z" fill="#FCC80F"/>
<path d="M2418.13 630.286H2388.67V689.204H2418.13V630.286Z" fill="#FCC80F"/>
<path d="M2388.69 600.842H2359.23V630.301H2388.69V600.842Z" fill="#FCC80F"/>
<path d="M2270.84 659.751H1887.88V689.21H2270.84V659.751Z" fill="#834D29"/>
<path d="M2094.1 689.22H1917.35V718.678H2094.1V689.22Z" fill="#834D29"/>
<path d="M2359.21 659.751H2300.29V689.21H2359.21V659.751Z" fill="#834D29"/>
<path d="M2388.68 689.22H2241.39V718.678H2388.68V689.22Z" fill="#834D29"/>
<path d="M2182.46 571.378H1858.41V600.837H2182.46V571.378Z" fill="#834D29"/>
<path d="M1946.79 600.842H1858.41V630.301H1946.79V600.842Z" fill="#834D29"/>
<path d="M2329.76 600.842H1976.26V630.301H2329.76V600.842Z" fill="#834D29"/>
<path d="M2329.77 571.378H2211.94V600.837H2329.77V571.378Z" fill="#834D29"/>
<path d="M2270.84 512.438H1799.5V541.896H2270.84V512.438Z" fill="#834D29"/>
<path d="M2241.39 718.689H2094.1V748.148H2241.39V718.689Z" fill="#FEE401"/>
<path d="M2241.39 836.506H2094.1V865.965H2241.39V836.506Z" fill="#F1A917"/>
<path d="M2123.56 748.127H2094.1V836.503H2123.56V748.127Z" fill="#FFCB07"/>
<path d="M2153 777.571H2123.54V807.03H2153V777.571Z" fill="#F0A513"/>
<path d="M2153 807.035H2123.54V836.494H2153V807.035Z" fill="#FFCB07"/>
<path d="M2211.94 777.571H2182.48V807.03H2211.94V777.571Z" fill="#F0A513"/>
<path d="M2211.94 807.035H2182.48V836.494H2211.94V807.035Z" fill="#FFCB07"/>
<path d="M2241.4 748.127H2211.94V836.503H2241.4V748.127Z" fill="#FFCB07"/>
<mask id="mask1_413_2284" style="mask-type:alpha" maskUnits="userSpaceOnUse" x="0" y="222" width="1197" height="1197">
<path d="M598.033 1418.07C928.318 1418.07 1196.07 1150.32 1196.07 820.033C1196.07 489.749 928.318 222 598.033 222C267.749 222 0 489.749 0 820.033C0 1150.32 267.749 1418.07 598.033 1418.07Z" fill="#D9D9D9"/>
</mask>
<g mask="url(#mask1_413_2284)">
<path d="M925.883 1313.76C923.138 1315.73 920.001 1317.69 917.256 1319.65C914.118 1321.61 911.373 1323.57 908.236 1325.14C905.491 1326.71 903.138 1328.27 900.393 1329.84C900.001 1330.24 899.609 1330.24 899.216 1330.63C890.197 1336.12 880.785 1341.22 871.373 1345.92C868.628 1347.49 865.491 1349.06 862.746 1350.24C862.746 1350.24 862.354 1350.63 861.962 1350.63C858.824 1352.2 855.687 1353.76 852.55 1355.33C846.275 1358.47 839.609 1361.22 833.334 1363.96C830.197 1365.53 826.667 1366.71 823.53 1367.88C820.393 1369.06 816.864 1370.63 813.726 1371.8C810.589 1372.98 807.06 1374.55 803.922 1375.73C803.922 1375.73 803.922 1375.73 803.53 1375.73C800.393 1376.9 796.864 1378.08 793.726 1379.25C786.667 1381.61 779.216 1383.96 772.158 1386.31C769.805 1387.1 767.06 1387.88 764.707 1388.67C757.256 1391.02 749.805 1392.98 742.354 1394.55C739.609 1395.33 736.864 1395.73 733.726 1396.51C726.667 1398.08 719.216 1399.65 712.158 1401.22C710.589 1401.61 709.413 1401.61 707.844 1402C705.491 1402.39 702.746 1402.78 700.393 1403.18C696.864 1403.57 693.726 1404.35 690.197 1404.74C688.628 1405.14 687.06 1405.14 685.491 1405.53C683.53 1405.92 681.177 1406.31 678.824 1406.31C672.55 1407.1 665.883 1407.88 659.609 1408.67C657.648 1409.06 655.295 1409.06 653.334 1409.45H652.942C650.197 1409.84 647.452 1409.84 644.707 1410.24C641.962 1410.63 639.217 1410.63 636.471 1410.63C634.903 1410.63 632.942 1411.02 631.373 1411.02C628.236 1411.02 625.491 1411.41 622.746 1411.41C618.824 1411.41 615.295 1411.8 611.373 1411.8C607.452 1411.8 603.922 1411.8 600.001 1411.8C597.256 1411.8 594.511 1411.8 591.765 1411.8C426.275 1409.45 277.648 1339.25 171.373 1227.88C171.373 1227.88 171.373 1227.49 170.981 1227.49C159.216 1216.9 169.413 1160.43 216.864 1124.74C276.471 1079.65 419.217 1051.41 419.217 1051.41C419.217 1051.41 474.511 1042.39 679.609 1085.14C799.609 1110.24 890.981 1146.71 941.962 1245.53C952.55 1265.92 963.138 1297.29 925.883 1313.76Z" fill="white"/>
<path d="M680.785 1080.82C756.079 1096.12 836.471 1112.59 898.432 1162.39C919.216 1179.25 932.942 1203.96 944.315 1227.88C949.805 1239.65 955.295 1251.8 959.609 1264.75C961.962 1273.37 965.491 1283.18 963.53 1293.37C963.138 1296.12 960.785 1299.65 958.824 1301.61C949.805 1310.63 940.001 1316.12 930.197 1323.18C872.55 1363.18 806.275 1391.41 737.648 1406.31C584.707 1439.65 419.216 1413.76 284.707 1333.37C240.001 1306.31 198.824 1273.37 163.53 1234.55C159.609 1229.84 159.609 1222 159.609 1216.9C160.001 1205.14 163.138 1193.76 167.06 1183.18C176.471 1158.86 188.628 1134.55 209.413 1117.69C224.315 1107.49 240.393 1098.86 256.864 1091.8C308.628 1069.84 363.138 1054.55 419.216 1048.27C423.922 1047.88 424.707 1054.55 420.001 1055.33C366.275 1066.31 312.942 1082.78 263.138 1105.14C245.099 1114.16 225.883 1122 211.373 1136.12C197.648 1151.02 187.844 1169.45 180.001 1188.27C174.903 1199.65 171.373 1217.69 172.942 1226.71C197.648 1256.12 226.667 1282 258.04 1304.35C429.805 1424.35 690.589 1432.2 873.334 1332.2C889.805 1323.18 905.883 1312.98 921.177 1302.39C928.628 1297.29 936.471 1292.98 942.354 1287.1C942.746 1286.71 942.354 1287.1 942.354 1287.49C942.354 1287.88 941.962 1288.27 941.962 1288.27C942.354 1283.57 940.785 1277.29 938.824 1271.02C931.765 1248.27 920.393 1224.35 908.236 1203.57C889.02 1172.59 856.471 1152.98 823.53 1137.29C800.785 1126.71 776.863 1118.47 752.55 1110.63C728.236 1102.78 703.53 1096.12 678.824 1090.24C672.55 1088.67 674.511 1079.65 680.785 1080.82Z" fill="black"/>
<path d="M1056.08 1556.9H64.3164C64.3164 1556.9 122.748 1433.77 148.63 1293.37C166.669 1196.12 180.002 1139.26 230.591 1107.88C266.277 1085.92 342.748 1063.18 375.689 1051.41C398.042 1043.57 402.748 1050.24 418.826 1045.92C418.826 1047.88 419.218 1049.45 419.218 1051.41C419.218 1051.41 461.571 1177.3 571.767 1222C661.571 1258.47 714.904 1234.16 723.14 1193.77C728.238 1167.88 712.159 1125.53 703.924 1111.81C699.218 1107.88 696.081 1102 694.512 1096.12L691.375 1083.18C698.826 1081.61 705.885 1079.65 712.944 1077.3C715.297 1076.51 717.257 1075.73 719.61 1074.94C764.708 1086.71 861.179 1124.75 903.924 1163.96C920.787 1179.65 960.787 1258.08 986.669 1371.81C1016.47 1500.82 1056.08 1556.9 1056.08 1556.9Z" fill="black"/>
<path d="M1065.1 1561.61C769.805 1563.57 355.295 1568.27 64.707 1567.1C57.6482 1567.1 52.5502 1559.25 55.6874 1552.98C90.5894 1476.12 118.04 1394.16 135.687 1311.41C137.648 1300.82 141.962 1280.04 143.923 1269.45C152.942 1226.31 160.001 1183.57 183.138 1143.96C190.981 1131.02 201.178 1118.86 213.334 1109.06C225.099 1099.65 238.825 1092.59 252.55 1086.31C296.472 1067.49 340.785 1052.59 385.883 1038.86C396.472 1036.51 407.06 1039.25 417.256 1036.9C423.138 1035.33 429.413 1039.65 429.805 1045.92L430.197 1051.41L419.609 1041.61C423.923 1041.61 427.844 1044.35 429.021 1048.27C432.158 1057.29 436.472 1066.71 440.785 1075.73C454.119 1102.78 470.589 1128.27 490.589 1150.63C516.864 1180.43 549.805 1203.96 587.452 1217.29C625.491 1231.41 693.334 1243.57 712.158 1198.08C715.295 1189.84 714.903 1181.22 713.727 1172.2C710.981 1153.76 704.707 1134.16 695.687 1117.69L697.648 1120.04C691.374 1111.8 689.021 1102 689.805 1092.59V1084.35V1083.18C689.805 1082.39 690.589 1081.61 691.374 1081.61C696.08 1080.04 700.393 1078.08 705.099 1076.51C709.413 1074.55 713.727 1072.59 718.04 1070.24C719.217 1069.45 720.393 1069.84 721.57 1070.24C747.452 1076.9 772.158 1085.92 796.864 1096.12C833.727 1111.41 870.197 1128.67 901.962 1153.37C913.334 1161.61 921.57 1173.76 928.236 1185.92C941.57 1209.45 952.158 1233.76 961.57 1258.47C978.04 1301.61 990.197 1346.31 1000.79 1391.41C1014.12 1441.22 1030.2 1490.63 1054.9 1536.12C1057.65 1540.82 1060.39 1545.53 1063.14 1550.24L1063.92 1551.02V1551.41C1066.28 1553.37 1066.67 1558.86 1065.1 1561.61ZM1047.06 1552.2C1045.1 1554.16 1045.49 1559.65 1047.06 1561.61V1561.22L1046.28 1560.04C1018.82 1514.94 1001.57 1464.35 987.452 1413.76C980.393 1389.06 975.295 1362.39 968.236 1337.29C954.511 1287.88 937.648 1238.08 912.942 1192.98C908.629 1185.53 903.923 1177.29 898.04 1171.41C886.668 1160.82 873.334 1152.2 860.001 1143.96C838.04 1131.02 814.511 1119.65 790.589 1109.84C766.668 1100.04 742.354 1091.02 717.648 1084.35L723.53 1083.96C712.942 1084.74 702.746 1085.14 692.55 1084.74L694.119 1082.39C696.472 1086.31 699.217 1092.98 701.57 1096.51C704.315 1100.04 707.452 1102.78 710.981 1104.35C711.766 1105.14 712.55 1105.92 712.942 1106.71C727.06 1133.76 741.178 1174.16 730.981 1204.35C707.452 1263.57 628.629 1254.16 580.393 1235.73C540.001 1222 503.53 1195.73 475.295 1163.57C447.06 1131.41 424.707 1094.55 409.805 1054.55L419.217 1061.22C413.727 1061.22 409.413 1057.29 409.021 1051.8L408.629 1046.71L421.178 1055.73C417.256 1056.9 412.55 1057.29 408.236 1057.69C397.256 1057.29 389.805 1056.9 379.609 1060.82C366.276 1065.53 352.55 1070.24 338.825 1074.55C311.766 1083.57 285.099 1092.98 259.609 1104.35C201.57 1127.49 184.707 1173.76 171.374 1231.41C165.099 1258.08 160.001 1288.27 154.511 1315.33C136.472 1400.04 109.021 1482 73.3345 1561.22L64.3149 1546.71C348.629 1546.71 758.825 1549.45 1047.06 1552.2Z" fill="black"/>
<path d="M538.04 1263.18C402.746 1202.39 350.197 1093.76 360.393 1064.35C360.393 1064.35 360.393 1063.96 360.785 1063.57C367.844 1049.06 379.217 1037.29 393.334 1029.06C401.178 1024.35 409.805 1020.04 416.864 1017.69C523.923 991.02 665.883 1036.12 713.727 1077.29C730.981 1098.08 748.629 1118.86 755.295 1173.76C764.707 1252.98 678.04 1326.31 538.04 1263.18Z" fill="white"/>
<path d="M536.079 1267.49C468.236 1236.9 404.707 1189.06 368.629 1122.78C361.57 1109.06 355.295 1094.94 353.334 1078.86C352.942 1073.37 352.55 1066.71 355.295 1061.22C363.531 1044.75 378.432 1031.8 394.903 1023.96C407.452 1017.29 421.178 1012.59 434.903 1008.27C454.511 1004.75 474.119 1003.57 494.119 1003.96C559.609 1005.92 624.707 1023.18 682.746 1053.37C687.06 1055.73 691.374 1058.08 695.687 1060.82C697.256 1061.61 698.432 1062.78 700.393 1062.39C702.354 1062 703.923 1062.78 705.491 1063.57C710.197 1066.31 714.119 1069.84 718.432 1073.76C729.021 1086.71 739.609 1100.43 746.668 1116.12C753.727 1131.8 757.648 1148.67 760.001 1165.14C766.276 1198.86 754.903 1236.51 728.629 1259.65C675.295 1307.49 595.295 1294.55 536.079 1267.49ZM539.609 1259.25C583.53 1278.47 633.727 1290.63 680.393 1275.73C718.04 1264.35 749.021 1230.24 750.197 1190.24C750.589 1166.71 745.099 1142 735.687 1120.43C730.589 1107.1 716.472 1090.24 709.413 1081.61C705.099 1078.08 700.393 1075.33 696.472 1071.8C696.08 1071.02 695.687 1070.24 695.295 1069.45C694.511 1067.49 692.942 1067.1 691.766 1065.92C687.844 1063.57 683.53 1061.22 679.217 1058.86C645.099 1041.22 607.452 1031.02 569.805 1023.57C525.883 1015.33 480.785 1012.98 436.472 1019.25C430.197 1020.04 423.531 1019.25 417.256 1020.82C412.55 1022.78 403.923 1026.71 398.432 1030.63C384.315 1038.86 373.727 1051.02 366.276 1065.53L365.883 1065.92C365.883 1066.31 365.491 1067.1 365.491 1067.49C363.53 1083.96 371.374 1100.82 378.825 1116.12C385.491 1128.67 393.334 1140.82 402.354 1152.59C438.432 1199.25 486.668 1235.33 539.609 1259.25Z" fill="black"/>
<path d="M717.645 1185.14C709.41 1225.53 656.076 1249.84 566.272 1213.37C472.939 1175.73 432.547 1085.92 422.351 1059.26C477.645 955.726 439.214 883.961 439.214 883.961C566.665 872.981 678.037 1022 678.037 1022L695.292 1095.73C696.861 1102 699.998 1107.49 704.704 1111.41C712.939 1125.92 722.743 1159.26 717.645 1185.14Z" fill="white"/>
<path d="M420.392 1060.43C427.843 1049.06 432.549 1035.73 435.686 1022.78C441.568 995.725 443.529 968.274 443.921 940.823V930.626C442.745 920.43 439.215 909.842 435.294 900.43C430.196 887.881 448.627 880.038 454.509 892.587C455.294 894.156 455.294 896.901 455.294 898.47C456.47 951.803 458.823 1020.43 425.098 1064.75C422.745 1067.1 418.039 1063.57 420.392 1060.43Z" fill="black"/>
<path d="M682.351 1021.22C688.234 1024.75 690.194 1029.45 690.979 1034.16C693.332 1043.57 692.547 1053.77 694.9 1063.57C696.861 1072.98 702.743 1082 704.312 1091.8C706.273 1102 712.155 1123.57 714.508 1134.16C715.292 1136.51 713.724 1139.26 710.979 1139.65C709.41 1140.04 708.234 1139.65 707.057 1138.86C701.959 1134.55 699.606 1130.24 696.469 1124.75C691.371 1115.33 687.841 1106.71 684.704 1096.12C681.959 1086.71 683.136 1076.51 680.783 1066.71C678.822 1057.29 673.332 1048.28 671.371 1038.47C670.194 1033.77 669.802 1028.67 673.332 1022.79C675.685 1020.43 679.606 1019.65 682.351 1021.22Z" fill="black"/>
<path d="M710.588 1124.74C635.686 1120.82 574.509 1097.29 514.902 991.02C565.098 1035.33 624.313 1052.2 686.666 1060.04L694.902 1096.12C696.47 1102.39 705.882 1120.82 710.588 1124.74Z" fill="black"/>
<path d="M707.452 1110.24C720.785 1135.33 728.629 1166.71 720.393 1194.55C714.119 1214.16 696.08 1228.67 676.472 1234.16C630.982 1246.31 578.433 1227.1 538.04 1205.53C488.236 1177.69 451.374 1131.02 427.844 1080.04C426.276 1076.12 431.766 1072.98 434.119 1076.9C442.354 1093.37 451.766 1109.45 462.354 1123.96C472.942 1138.86 485.099 1152.59 498.825 1164.75C538.825 1200.82 592.942 1223.18 647.06 1223.18C702.746 1221.61 723.923 1192.2 710.982 1138.08C709.021 1129.45 705.884 1120.43 701.57 1112.98C699.217 1109.84 705.099 1106.31 707.452 1110.24Z" fill="black"/>
<path d="M859.216 639.255C866.275 672.196 869.805 698.863 850.589 786.706C831.765 874.157 868.236 962.392 775.687 1042.78C713.334 1096.9 604.314 1107.1 517.256 1047.88C487.844 1027.88 480.001 934.549 456.864 898.863C447.06 883.961 441.177 907.883 418.824 883.177C387.844 849.451 350.589 781.608 369.02 661.608C398.824 467.098 552.942 444.353 667.06 465.922C781.569 487.49 840.393 552.588 859.216 639.255Z" fill="white"/>
<path d="M438.039 917.687C429.019 902.785 417.647 889.844 407.059 876.118C391.372 854.942 379.608 830.628 371.764 805.53C338.039 698.079 356.078 558.079 455.686 491.02C547.843 428.667 723.921 447.491 804.706 522.785C845.098 559.255 867.451 612.197 872.156 665.53C874.509 701.216 865.882 735.726 858.431 770.236C849.804 803.961 847.843 837.687 847.843 872.589C847.451 907.491 845.882 943.961 832.549 976.903C812.157 1027.1 769.411 1067.88 718.039 1085.14C650.588 1108.67 570.98 1095.33 515.686 1050.24C513.333 1048.28 515.686 1045.14 518.431 1046.31C590.98 1087.49 686.274 1094.55 756.862 1047.1C798.823 1018.86 827.843 974.157 834.509 923.961C840 889.844 838.431 855.334 841.568 820.824C842.745 805.53 847.058 784.354 850.196 769.059C854.902 743.569 858.039 718.079 857.647 692.589C857.255 667.491 851.764 642.785 844.313 618.863C818.431 533.765 744.313 483.569 658.823 469.844C530.98 447.491 419.215 494.942 385.882 627.883C371.372 692.981 360 764.746 387.451 827.883C397.255 851.804 413.333 872.197 431.764 889.844L449.804 909.059C457.647 916.903 444.313 927.099 438.039 917.687Z" fill="black"/>
<path d="M484.311 792.981C484.311 792.981 472.155 734.157 414.9 741.216C365.488 747.49 348.233 865.922 460.39 898.863" fill="white"/>
<path d="M455.293 847.49C446.273 842.392 439.999 833.765 439.606 823.176C439.999 815.333 441.175 806.314 439.214 798.471C438.038 791.02 430.195 789.059 424.312 789.451C418.038 790.627 414.116 798.471 412.94 804.745C412.94 805.137 412.548 806.314 412.548 806.706C412.155 808.667 409.018 808.667 408.234 806.706C403.136 791.412 414.508 774.549 430.979 776.51C454.116 778.078 457.254 802.392 452.94 820.823C450.587 828.667 453.724 835.725 458.038 842.392L458.822 843.569C460.783 845.921 457.646 849.059 455.293 847.49Z" fill="black"/>
<path d="M769.018 751.412C774.9 779.255 785.881 805.137 799.606 829.451C811.763 859.255 780.39 887.49 752.547 886.314C749.41 886.314 749.018 882 751.763 881.216C769.41 875.726 785.488 863.961 788.234 845.922C789.41 840.432 787.841 835.726 785.096 831.02C772.155 806.706 764.312 778.863 766.273 751.412C766.273 749.451 769.018 749.451 769.018 751.412Z" fill="black"/>
<path d="M482.353 793.373C473.333 770.235 453.725 748.275 427.451 748.667C425.098 748.275 421.176 749.059 418.823 749.059C412.157 749.451 406.666 751.804 401.568 756.51C376.47 781.608 380.784 825.922 401.176 853.765C408.235 863.569 417.255 872.196 427.451 879.255C437.647 886.314 449.019 891.804 461.176 896.51C463.921 897.294 462.745 901.608 460 901.216C433.725 895.725 408.627 882.784 391.372 861.216C364.706 829.059 359.215 775.333 390.98 743.961C398.039 737.686 407.843 732.98 417.647 732.98C420.784 732.98 425.49 732.196 428.627 732.98C445.098 733.765 460.784 742 470.98 754.941C480 765.922 485.098 779.255 486.666 792.588C486.666 794.941 483.137 795.725 482.353 793.373Z" fill="black"/>
<path d="M739.216 925.53C714.118 949.451 666.667 930.236 654.118 901.216C652.549 897.687 656.471 894.549 659.608 896.118C666.275 899.647 672.157 903.177 678.432 905.922C696.471 914.157 715.294 920.824 735.294 918.863C739.216 918.079 741.961 922.785 739.216 925.53Z" fill="black"/>
<path d="M622.746 791.411C613.334 791.019 606.275 783.176 607.06 773.764L607.452 762.784C607.844 753.372 615.687 746.313 625.099 747.098C634.511 747.49 641.57 755.333 640.785 764.745L640.393 775.725C640.001 784.745 632.158 791.804 622.746 791.411Z" fill="black"/>
<path d="M787.843 797.293C779.215 796.901 772.549 789.45 772.941 780.822L773.333 770.626C773.725 761.999 781.176 755.332 789.803 755.724C798.431 756.117 805.098 763.568 804.705 772.195L804.313 782.391C803.921 791.019 796.47 797.685 787.843 797.293Z" fill="black"/>
<path d="M658.04 770.235C645.099 761.607 630.981 755.725 615.295 758.862C610.197 759.647 605.099 761.215 601.962 764.745C600.785 766.313 598.04 765.921 598.04 763.568C598.432 755.725 605.099 750.627 611.373 747.49C623.53 741.215 640.393 742.392 651.373 750.627C655.295 752.98 668.628 767.49 661.569 770.627C660.001 771.411 659.217 771.019 658.04 770.235Z" fill="black"/>
<path d="M770.197 772.196C770.197 755.726 790.589 749.843 803.138 755.726C810.197 758.863 815.295 765.137 817.256 772.588C818.04 774.941 814.511 776.902 812.942 774.941C806.275 767.098 794.903 763.177 785.883 767.882C783.138 769.451 782.746 770.628 781.962 772.196C781.962 780.039 770.589 779.647 770.197 772.196Z" fill="black"/>
<path d="M676.864 705.529C685.099 708.274 693.334 700.823 691.766 691.804C690.981 687.098 689.02 682.392 685.099 678.863C673.334 668.274 624.707 658.863 595.295 672.588C569.413 685.137 639.217 692.98 676.864 705.529Z" fill="black"/>
<path d="M794.12 711.804C787.453 714.157 780.394 707.098 781.571 698.863C781.963 694.549 783.532 690.236 786.669 687.098C796.081 677.687 828.238 670.236 848.63 684.745C866.277 696.902 824.708 700.432 794.12 711.804Z" fill="black"/>
<path d="M889.021 545.922C916.864 445.138 803.923 382 773.726 427.491C751.766 460.432 667.06 434.942 538.432 432.589C409.805 429.843 375.295 498.079 373.726 571.412C373.726 571.412 317.256 601.216 320.785 706.314C324.315 815.334 436.472 903.177 450.197 958.471C450.197 958.471 451.766 965.53 436.864 889.843C351.374 848.667 369.413 747.098 415.295 741.216C450.197 736.902 468.628 757.294 477.256 773.765C480.785 778.471 514.119 819.255 514.903 685.922C515.295 594.942 603.923 565.138 704.707 602C757.256 621.216 812.55 635.334 850.589 607.883C856.864 625.922 863.53 645.922 858.432 670.236C873.726 656.118 886.668 635.334 890.197 609.843C892.55 594.549 888.628 581.216 880.001 569.451C883.53 562.785 886.668 554.549 889.021 545.922Z" fill="black"/>
<path d="M685.099 839.647C685.099 839.647 648.236 862.784 606.667 862.392C565.099 862 560.001 829.451 559.609 811.804C559.609 811.804 565.099 837.294 590.197 846.706C614.903 856.117 685.099 839.647 685.099 839.647Z" fill="black"/>
<path d="M803.527 835.333C803.527 835.333 812.547 846.313 824.704 854.157C832.939 859.647 843.919 853.764 843.919 843.961C843.919 843.961 821.174 845.137 803.527 835.333Z" fill="black"/>
<path d="M698.822 734.941C677.645 732.98 624.312 728.667 603.92 726.706L588.233 725.529C575.292 724.745 565.096 735.725 562.743 748.274C561.959 752.196 561.959 758.863 561.959 762.784V778.863C561.959 788.667 561.567 798.863 565.096 808.275C571.371 830.235 591.371 847.882 614.9 845.137C617.253 844.745 631.763 843.176 634.508 842.784L666.273 839.255C676.469 838.471 685.88 835.726 694.9 830.235C707.449 822.784 719.606 811.412 718.822 795.333L719.606 779.647C720.39 760.039 725.88 736.902 698.822 734.941ZM699.998 722C718.429 723.569 730.978 742.784 729.802 760.431C729.802 762.784 729.018 777.686 728.625 780.431C728.625 783.569 727.841 797.686 727.449 800.431C725.488 827.098 695.684 845.922 671.371 849.451C658.822 851.02 632.547 854.549 619.998 856.118C616.861 856.51 612.547 856.902 609.41 857.294C607.841 857.294 604.312 856.902 602.743 856.902C569.41 852.588 548.233 818.471 549.018 786.706C549.018 781.608 549.018 768.274 549.018 762.784C549.018 760.039 549.018 752.98 549.41 750.235C550.586 736.51 558.037 723.176 570.586 715.725C576.076 712.588 582.743 711.02 589.41 711.412L605.488 712.98C625.096 715.333 679.214 720.431 699.998 722Z" fill="black"/>
<path d="M790.979 728.275C799.607 727.098 841.96 722.392 849.803 721.608C851.764 721.608 856.862 720.824 858.43 720.824C875.293 718.471 883.136 736.902 884.705 750.628C885.489 762.785 884.705 774.549 885.097 786.314C885.097 794.549 884.313 802.785 882.352 810.628C877.254 831.804 862.352 854.157 837.646 847.098C831.764 845.922 819.999 844.353 814.509 843.177L808.627 842C797.254 840.04 787.842 832.196 781.568 823.569C769.803 809.843 772.156 791.412 770.979 774.941C769.411 758.471 769.803 732.981 790.979 728.275ZM792.548 739.647C780.391 745.138 783.529 763.569 783.529 774.549L784.313 798.079C784.705 812.981 796.47 827.883 810.587 831.804C814.117 832.589 823.921 834.549 827.842 835.334L839.215 837.687C867.45 846.706 878.43 807.491 878.038 785.922C876.862 767.883 882.352 746.314 869.411 731.804C866.274 728.667 863.136 727.883 859.607 728.667C857.646 729.059 852.548 729.843 850.979 730.236C843.136 731.804 800.783 738.471 792.548 739.647Z" fill="black"/>
<path d="M555.293 764.745C552.156 771.804 549.411 771.02 543.921 771.02L532.548 770.628C518.038 769.843 501.96 768.667 487.45 766.706C479.607 765.53 471.372 764.353 463.528 762.392C460.391 761.608 458.43 758.471 459.215 755.333C459.999 752.588 462.352 750.628 465.097 751.02L487.842 752.196L510.587 752.98C518.038 753.373 537.254 753.765 544.705 754.157C548.626 754.157 552.156 754.549 556.077 753.373C557.646 752.981 559.215 753.765 559.607 755.333C559.999 756.118 559.607 756.51 559.607 757.294L555.293 764.745Z" fill="black"/>
<path d="M722.352 756.51C736.47 748.667 773.724 737.686 780.783 758.863C783.921 764.353 775.685 769.451 772.156 763.961C772.156 764.745 770.195 763.961 769.411 763.961C754.509 762.784 739.215 765.137 724.313 766.314C718.038 767.098 716.862 758.863 722.352 756.51Z" fill="black"/>
<path d="M1130.2 552.588C1368.24 1011.02 949.804 1528.27 450.98 1402C227.059 1346.31 47.0589 1152.2 9.80402 924.353C-32.5489 697.686 69.804 454.157 261.176 325.922C523.529 145.53 887.059 205.53 1074.9 463.569C1076.08 464.745 1075.69 466.706 1074.12 467.883C1072.94 469.059 1070.98 468.667 1069.8 467.098C1043.92 433.765 1014.51 403.569 982.353 376.51C929.412 331.412 867.451 296.118 801.961 272.196C468.627 151.412 102.745 352.196 29.804 700.824C-52.5489 1091.41 279.608 1451.02 675.686 1397.29C981.176 1358.86 1208.24 1076.9 1183.14 770.235C1177.65 696.118 1158.04 622.785 1125.49 555.334C1124.71 554.157 1125.49 552.588 1126.67 551.804C1127.84 551.02 1129.41 551.412 1130.2 552.588Z" fill="#21FF7E"/>
</g>
</svg>
