<svg width="1300" height="1300" viewBox="0 0 1300 1300" fill="none" xmlns="http://www.w3.org/2000/svg">
<mask id="mask0_410_1374" style="mask-type:alpha" maskUnits="userSpaceOnUse" x="4" y="0" width="1296" height="1296">
<circle cx="647.869" cy="647.869" r="647.869" transform="matrix(-1 0 0 1 1300 0)" fill="#D9D9D9"/>
</mask>
<g mask="url(#mask0_410_1374)">
<path d="M296.96 1182.75C299.934 1184.87 303.333 1186.99 306.307 1189.12C309.705 1191.24 312.679 1193.37 316.078 1195.07C319.052 1196.77 321.601 1198.47 324.575 1200.16C325 1200.59 325.424 1200.59 325.849 1201.01C335.62 1206.96 345.817 1212.48 356.013 1217.58C358.987 1219.28 362.385 1220.98 365.359 1222.26C365.359 1222.26 365.784 1222.68 366.209 1222.68C369.607 1224.38 373.006 1226.08 376.405 1227.78C383.202 1231.18 390.424 1234.15 397.222 1237.13C400.62 1238.82 404.444 1240.1 407.843 1241.37C411.241 1242.65 415.065 1244.35 418.464 1245.62C421.862 1246.9 425.686 1248.6 429.085 1249.87C429.085 1249.87 429.085 1249.87 429.509 1249.87C432.908 1251.14 436.732 1252.42 440.13 1253.69C447.777 1256.24 455.849 1258.79 463.496 1261.34C466.045 1262.19 469.019 1263.04 471.568 1263.89C479.64 1266.44 487.712 1268.56 495.784 1270.26C498.758 1271.11 501.732 1271.54 505.13 1272.39C512.777 1274.09 520.849 1275.79 528.496 1277.48C530.196 1277.91 531.47 1277.91 533.169 1278.33C535.719 1278.76 538.692 1279.18 541.241 1279.61C545.065 1280.03 548.464 1280.88 552.287 1281.31C553.986 1281.73 555.686 1281.73 557.385 1282.16C559.509 1282.58 562.058 1283.01 564.607 1283.01C571.405 1283.86 578.627 1284.71 585.424 1285.56C587.549 1285.98 590.098 1285.98 592.222 1286.41H592.647C595.62 1286.83 598.594 1286.83 601.568 1287.26C604.542 1287.68 607.516 1287.68 610.49 1287.68C612.189 1287.68 614.313 1288.11 616.013 1288.11C619.411 1288.11 622.385 1288.53 625.359 1288.53C629.607 1288.53 633.431 1288.96 637.679 1288.96C641.928 1288.96 645.751 1288.96 650 1288.96C652.973 1288.96 655.947 1288.96 658.921 1288.96C838.202 1286.41 999.215 1210.36 1114.35 1089.71C1114.35 1089.71 1114.35 1089.28 1114.77 1089.28C1127.52 1077.81 1116.47 1016.64 1065.06 977.975C1000.49 929.119 845.849 898.531 845.849 898.531C845.849 898.531 785.947 888.759 563.758 935.066C433.758 962.256 334.771 1001.77 279.542 1108.82C268.071 1130.92 256.601 1164.9 296.96 1182.75Z" fill="white"/>
<path d="M562.483 930.393C480.914 946.961 393.823 964.805 326.699 1018.76C304.182 1037.03 289.313 1063.79 276.993 1089.71C271.045 1102.45 265.097 1115.62 260.424 1129.64C257.875 1138.99 254.052 1149.61 256.176 1160.65C256.601 1163.63 259.15 1167.45 261.274 1169.58C271.045 1179.35 281.666 1185.29 292.287 1192.94C354.738 1236.28 426.535 1266.86 500.882 1283.01C666.568 1319.12 845.849 1291.08 991.568 1203.99C1040 1174.67 1084.61 1138.99 1122.84 1096.93C1127.09 1091.83 1127.09 1083.33 1127.09 1077.81C1126.67 1065.07 1123.27 1052.75 1119.02 1041.28C1108.82 1014.94 1095.65 988.595 1073.14 970.327C1056.99 959.282 1039.57 949.935 1021.73 942.288C965.653 918.497 906.601 901.929 845.849 895.131C840.751 894.706 839.901 901.929 844.999 902.778C903.202 914.674 960.98 932.517 1014.93 956.733C1034.48 966.504 1055.29 975.001 1071.01 990.295C1085.88 1006.44 1096.5 1026.41 1105 1046.8C1110.52 1059.12 1114.35 1078.66 1112.65 1088.43C1085.88 1120.29 1054.44 1148.33 1020.46 1172.55C834.378 1302.55 551.862 1311.05 353.888 1202.71C336.045 1192.94 318.627 1181.9 302.058 1170.43C293.986 1164.9 285.489 1160.23 279.117 1153.86C278.692 1153.43 279.117 1153.86 279.117 1154.28C279.117 1154.71 279.542 1155.13 279.542 1155.13C279.117 1150.03 280.816 1143.24 282.94 1136.44C290.587 1111.8 302.908 1085.88 316.078 1063.37C336.895 1029.8 372.156 1008.56 407.842 991.569C432.483 980.099 458.398 971.177 484.738 962.68C511.078 954.184 537.842 946.961 564.607 940.589C571.404 938.889 569.28 929.118 562.483 930.393Z" fill="black"/>
<path d="M148.692 1447.84L1224.8 1424.05C1158.53 1202.71 1121.57 1007.71 1071.86 977.974C977.548 921.471 892.58 912.549 842.025 907.876C829.28 939.314 780.849 1042.55 680.162 1083.33C582.875 1122.84 525.097 1096.5 516.175 1052.75C510.652 1024.71 528.071 978.824 536.992 963.954C542.09 959.706 545.489 953.333 547.188 946.961L550.587 932.941C543.365 931.242 536.143 929.543 528.92 926.994C451.6 940.588 334.345 1004.31 309.28 1040C279.116 1082.91 237.483 1190.39 239.182 1249.44C241.731 1345.46 148.692 1447.84 148.692 1447.84Z" fill="white"/>
<path d="M138.496 1452.52C458.823 1447.84 909.149 1443.17 1224.8 1435.1C1230.75 1435.1 1235.42 1430 1235.42 1424.05C1201.01 1308.07 1173.4 1191.24 1136.44 1075.69C1131.76 1061.24 1126.67 1047.22 1120.72 1032.78C1110.52 1010.26 1100.33 985.196 1079.08 969.902C1066.76 962.68 1053.59 955.458 1040.85 949.085C979.247 918.497 910.849 902.778 842.875 897.255C837.777 896.83 833.528 899.804 831.829 904.053C799.541 981.373 740.914 1053.17 658.921 1079.93C618.561 1093.95 546.764 1105.85 527.646 1055.72C521.273 1031.5 530.62 1006.01 539.117 983.072C541.241 978.399 543.365 973.726 545.489 969.902L543.365 972.451C551.437 965.654 556.535 954.183 558.234 943.987L560.358 935.49C561.633 929.543 557.809 923.595 551.862 922.321C544.639 920.621 537.842 918.922 531.045 916.798C471.568 921.046 349.64 981.373 307.581 1023.86C282.94 1052.32 268.921 1089.28 254.901 1123.69C244.705 1151.31 235.783 1179.77 230.685 1209.09C228.561 1220.13 227.287 1231.6 227.287 1243.07C227.711 1260.07 226.437 1277.48 221.764 1294.48C207.744 1347.58 176.731 1396.44 141.47 1438.5L140.62 1439.35L140.195 1439.77C140.195 1439.77 140.62 1439.35 138.921 1441.05C137.646 1444.44 137.221 1449.54 138.496 1452.52ZM158.463 1443.6C158.888 1444.87 159.738 1446.57 159.313 1448.69C159.313 1450.82 158.463 1452.52 157.613 1453.79C156.339 1455.49 156.764 1454.64 156.764 1455.07L157.189 1454.64C160.162 1450.39 166.11 1441.9 169.084 1437.22C203.921 1382.42 238.332 1321.67 239.607 1254.97C238.757 1211.21 252.352 1169.15 266.796 1128.79C276.992 1101.6 288.888 1075.26 304.182 1050.62C308.006 1044.67 311.829 1038.73 316.927 1033.63C332.221 1018.76 350.914 1006.86 369.607 996.242C419.313 968.628 473.267 945.687 529.77 938.464L524.672 938.04C532.319 940.589 539.966 942.288 547.613 943.987L539.117 930.817C536.568 939.739 536.143 950.36 528.921 956.308C524.247 961.83 521.698 969.053 518.725 975C511.927 991.144 507.254 1007.71 504.28 1025.13C496.633 1066.77 521.274 1101.18 562.058 1110.52C596.47 1118.6 632.581 1111.37 665.293 1100.75C753.234 1072.71 816.96 995.817 851.372 912.549L840.326 919.347C907.45 918.497 974.149 931.667 1034.9 960.556C1048.07 966.928 1061.67 974.151 1073.99 981.798C1091.4 995.817 1099.9 1017.91 1108.82 1037.88C1136.44 1107.55 1152.58 1180.62 1170.85 1252.84C1183.59 1303.82 1200.59 1376.05 1213.33 1427.45L1223.53 1413.43C915.947 1419.8 471.143 1433.4 158.463 1443.6Z" fill="black"/>
<path d="M1036.18 1446.14C1036.18 1446.14 1041.7 1308.5 1047.22 1283.01" stroke="black" stroke-width="5.1512" stroke-miterlimit="10" stroke-linecap="round" stroke-linejoin="round"/>
<path d="M283.367 1446.14C283.367 1446.14 296.112 1360.75 296.112 1345.88C296.112 1331.44 285.066 1283.86 283.367 1242.22" stroke="black" stroke-width="5.1512" stroke-miterlimit="10" stroke-linecap="round" stroke-linejoin="round"/>
<path d="M910.847 1339.08V1288.53L788.919 1338.24C789.344 1338.24 887.481 1340.78 910.847 1339.08Z" fill="white"/>
<path d="M620.261 1174.67L635.555 1491.6C635.555 1491.6 500.881 1583.37 500.881 1580.82C500.881 1578.27 437.156 1466.96 437.156 1466.96L536.568 1161.93C536.568 1161.93 549.313 1175.1 620.261 1174.67Z" fill="black"/>
<path d="M589.671 1072.71C589.671 1072.71 647.873 1127.52 655.52 1141.96C663.167 1156.41 622.808 1179.35 622.808 1179.35C622.808 1179.35 557.808 1192.94 528.494 1166.6C528.494 1166.6 511.926 1148.33 515.324 1130.92C518.298 1113.92 589.671 1072.71 589.671 1072.71Z" fill="black"/>
<path d="M859.445 867.092C859.02 866.667 858.595 866.242 858.171 865.817C853.497 860.295 846.7 856.896 839.053 856.046C803.367 851.798 799.543 855.621 791.896 867.517C754.935 925.294 706.929 1035.75 589.249 1073.14L702.68 1188.69C708.628 1196.34 719.249 1197.61 726.896 1192.09C763.432 1164.9 836.504 1081.63 876.863 980.098C885.36 958.857 887.06 935.491 882.811 913.399C883.661 912.549 866.667 877.288 859.445 867.092Z" fill="white"/>
<path d="M862.419 864.968C856.046 859.02 848.824 853.922 839.902 852.647C828.007 851.373 815.687 848.824 803.367 851.373C790.621 855.196 785.948 869.216 778.726 878.987C746.863 931.242 713.726 984.347 664.87 1021.31C647.452 1035.33 627.484 1045.95 607.092 1054.44C599.445 1057.42 591.373 1059.97 583.726 1063.37C577.353 1066.34 576.079 1075.69 581.602 1079.93C613.04 1105.43 642.778 1133.04 672.092 1161.5C678.889 1168.3 694.608 1184.02 700.556 1189.97C707.353 1198.89 720.948 1200.16 729.445 1193.37L733.693 1189.97C748.138 1178.07 761.308 1164.48 774.053 1150.88C819.51 1100.75 857.746 1043.82 883.236 980.948C892.157 958.432 894.282 932.942 888.759 909.576C882.386 893.857 873.889 878.138 862.419 864.968ZM853.922 870.915C863.268 884.085 871.34 900.229 878.138 915.098L877.713 913.824C880.262 927.844 880.262 942.288 877.288 955.883C874.739 970.327 868.367 983.072 862.844 996.242C851.373 1023.43 836.929 1049.35 821.635 1074.41C806.34 1099.48 788.922 1123.69 769.38 1146.21C756.21 1161.5 742.19 1176.37 726.046 1188.69C724.772 1189.97 723.497 1190.39 721.798 1191.24C715.85 1193.79 708.628 1191.67 704.804 1186.57L690.785 1172.12L676.765 1157.26C648.726 1127.94 621.961 1097.35 596.896 1065.49L592.648 1082.91C623.236 1073.56 652.125 1056.99 677.19 1036.18C726.896 995.817 759.184 939.739 789.772 885.36C793.595 879.412 797.419 871.765 801.242 866.242C802.942 863.693 804.216 862.843 806.765 861.994C816.536 859.445 828.007 861.144 838.203 862.419C845.001 863.268 850.523 866.242 853.922 870.915Z" fill="black"/>
<path d="M470.72 1146.64C473.269 1160.66 483.465 1173.83 500.458 1156.41L590.099 1072.71C590.099 1072.71 537.844 1023.01 550.589 932.944C533.171 929.12 516.602 923.597 501.308 916.375C500.883 917.225 494.935 928.695 488.138 947.813C473.693 987.323 455.425 1059.97 470.72 1146.64Z" fill="white"/>
<path d="M468.169 1147.06C470.718 1167.45 486.012 1175.95 501.731 1160.23L531.895 1132.19L562.058 1104.15L592.221 1076.11C593.921 1074.41 593.921 1071.86 592.646 1070.16C569.28 1042.97 557.385 1006.01 557.385 970.328C557.385 957.582 559.084 945.262 561.208 932.517C562.058 927.419 557.81 922.746 552.287 922.321C535.293 921.896 518.3 919.772 501.306 915.524C500.881 915.099 500.032 915.524 500.032 915.948C466.045 987.321 455.424 1069.31 468.169 1147.06ZM472.842 1146.21C462.646 1070.59 473.692 991.994 508.953 924.445L509.803 923.171C510.228 922.746 510.653 921.896 510.653 921.896L496.208 926.145C512.777 934.216 530.195 939.739 548.038 943.563L539.542 931.243C536.993 957.582 539.117 984.347 546.764 1009.41C554.836 1034.48 567.581 1057.42 586.699 1076.11V1069.74C571.404 1083.76 541.241 1112.22 526.372 1126.24L496.633 1154.71C486.012 1165.75 475.816 1161.5 472.842 1146.21Z" fill="black"/>
<path d="M522.553 1043.4C531.474 1087.16 589.252 1113.5 686.54 1073.99C787.651 1033.2 831.409 935.914 842.455 907.026C782.553 794.869 824.187 717.124 824.187 717.124C686.115 705.228 565.461 866.666 565.461 866.666L546.768 946.535C545.069 953.333 541.67 959.28 536.572 963.529C527.651 979.248 517.03 1015.36 522.553 1043.4Z" fill="white"/>
<path d="M844.577 908.3C836.505 895.979 831.407 881.535 828.008 867.515C821.636 838.202 819.511 808.463 819.087 778.724V767.679C820.361 756.633 824.185 745.162 828.433 734.966C833.956 721.372 813.989 712.875 807.616 726.47C806.766 728.169 806.766 731.143 806.766 732.842C805.492 790.62 802.943 864.966 839.479 912.973C842.028 915.522 847.126 911.698 844.577 908.3Z" fill="black"/>
<path d="M560.788 865.817C554.415 869.64 552.291 874.738 551.441 879.836C548.892 890.032 549.742 901.078 547.193 911.699C545.069 921.895 538.696 931.666 536.997 942.287C534.872 953.333 528.5 976.699 525.951 988.17C525.101 990.719 526.801 993.693 529.774 994.117C531.474 994.542 532.748 994.117 534.023 993.268C539.546 988.595 542.095 983.921 545.493 977.974C551.016 967.778 554.84 958.431 558.238 946.96C561.212 936.764 559.938 925.719 562.487 915.098C564.611 904.902 570.559 895.13 572.683 884.51C573.957 879.411 574.382 873.889 570.559 867.516C568.01 864.967 563.761 864.117 560.788 865.817Z" fill="black"/>
<path d="M530.197 977.973C611.341 973.724 677.616 948.234 742.191 833.104C687.812 881.11 623.661 899.378 556.112 907.875L547.191 946.96C545.492 953.757 535.295 973.724 530.197 977.973Z" fill="black"/>
<path d="M533.595 962.255C519.15 989.444 510.653 1023.43 519.575 1053.59C526.372 1074.84 545.915 1090.56 567.157 1096.5C616.438 1109.67 673.366 1088.86 717.124 1065.49C771.078 1035.33 811.013 984.771 836.503 929.542C838.202 925.294 832.255 921.895 829.706 926.144C820.784 943.987 810.588 961.405 799.118 977.124C787.647 993.268 774.477 1008.14 759.608 1021.31C716.274 1060.39 657.647 1084.61 599.019 1084.61C538.693 1082.91 515.751 1051.05 529.771 992.418C531.895 983.072 535.294 973.301 539.967 965.229C542.516 961.83 536.144 958.006 533.595 962.255Z" fill="black"/>
<path d="M369.185 452.026C361.538 487.712 387.028 525.948 387.028 621.111C387.028 718.399 404.871 824.183 478.368 897.68C541.668 960.98 614.315 958.431 699.708 891.732C711.603 882.386 753.237 850.948 763.858 840.327C776.178 828.007 782.976 819.085 788.923 809.739C794.021 801.242 792.747 751.961 799.969 740.49C818.662 709.477 822.485 743.039 846.701 715.85C880.263 679.314 920.623 605.817 900.655 475.817C868.368 265.098 701.407 240.458 577.78 263.824C453.302 287.614 389.577 358.137 369.185 452.026Z" fill="white"/>
<path d="M825.459 753.66C835.23 737.516 847.551 723.072 859.021 708.202C870.492 692.484 879.838 675.915 887.485 658.072C930.819 553.137 924.446 415.915 847.551 327.549C794.871 267.222 711.603 247.255 635.132 251.503C558.662 256.176 479.217 275.719 422.714 330.948C390.002 362.81 369.185 405.294 359.838 449.477C356.864 463.497 358.989 478.791 362.387 491.961C372.158 528.921 381.505 564.183 382.355 602.418C381.93 659.346 383.629 717.549 400.198 772.353C412.093 808.889 426.113 845.425 448.204 877.287C471.145 909.575 505.557 935.49 545.067 943.137C624.511 959.281 698.858 909.15 751.538 854.771C753.662 852.222 750.688 849.248 748.139 850.948C717.976 873.889 686.962 895.131 653.4 909.575C556.538 954.183 476.243 912.974 433.76 819.51C398.074 751.536 387.877 678.039 390.851 601.993C390.851 582.876 390.002 563.758 387.453 544.64C384.904 517.026 375.557 489.412 375.982 462.222C383.204 418.039 403.596 375.555 434.185 342.843C506.832 265.948 646.178 243.431 743.891 278.268C859.021 319.052 890.034 435.033 896.407 545.915C900.655 612.189 881.113 677.189 830.982 722.647L811.015 743.464C804.217 752.81 818.662 763.856 825.459 753.66Z" fill="black"/>
<path d="M775.329 618.562C775.329 618.562 788.499 554.837 850.525 562.484C904.054 569.281 922.747 697.582 801.244 733.268" fill="white"/>
<path d="M806.766 677.614C816.538 672.092 823.335 662.745 823.76 651.275C823.335 642.778 822.06 633.007 824.185 624.51C825.459 616.438 833.956 614.314 840.328 614.739C847.126 616.013 851.374 624.51 852.649 631.307C852.649 631.732 853.074 633.007 853.074 633.431C853.498 635.556 856.897 635.556 857.747 633.431C863.27 616.863 850.949 598.595 833.106 600.719C808.041 602.418 804.642 628.758 809.315 648.726C811.864 657.222 808.466 664.869 803.792 672.092L802.943 673.366C800.819 675.915 804.217 679.314 806.766 677.614Z" fill="black"/>
<path d="M466.897 573.53C460.525 603.693 448.629 631.732 433.76 658.072C420.59 690.36 454.577 720.948 484.74 719.673C488.139 719.673 488.564 715 485.59 714.151C466.472 708.203 449.054 695.458 446.08 675.915C444.806 669.968 446.505 664.87 449.479 659.771C463.498 633.432 471.995 603.268 469.871 573.53C469.871 571.405 466.897 571.405 466.897 573.53Z" fill="black"/>
<path d="M777.451 618.986C787.222 593.921 808.464 570.13 836.928 570.555C839.477 570.13 843.725 570.979 846.274 570.979C853.497 571.404 859.444 573.953 864.967 579.051C892.157 606.241 887.483 654.248 865.392 684.411C857.745 695.032 847.974 704.378 836.928 712.025C825.882 719.672 813.562 725.62 800.392 730.718C797.418 731.568 798.693 736.241 801.666 735.816C830.131 729.868 857.32 715.849 876.013 692.483C904.902 657.646 910.85 599.444 876.438 565.457C868.791 558.659 858.17 553.561 847.549 553.561C844.15 553.561 839.052 552.712 835.653 553.561C817.81 554.411 800.817 563.332 789.771 577.352C780 589.247 774.477 603.692 772.778 618.136C772.778 620.685 776.601 621.535 777.451 618.986Z" fill="black"/>
<path d="M495.361 760.033C502.584 765.131 513.204 760.883 520.851 764.282C526.374 765.981 535.296 773.628 548.041 772.778C558.237 771.929 563.335 766.831 571.832 763.007C580.753 760.033 590.1 754.51 596.048 747.288C597.322 746.014 597.322 744.314 596.048 743.04C594.348 741.34 592.649 742.615 590.95 743.465C587.126 745.589 584.152 747.288 581.178 748.138C578.204 748.988 575.231 748.138 570.557 748.138C565.884 747.713 559.087 749.837 554.838 753.236C551.865 755.36 548.466 756.635 545.917 757.059C539.119 758.334 530.623 752.811 523.4 751.961C518.302 751.112 512.78 751.537 508.531 752.811C504.283 754.086 501.309 754.935 497.91 754.086C494.087 753.236 491.963 758.334 495.361 760.033Z" fill="black"/>
<path d="M562.91 528.497C553.564 529.771 546.342 520 549.74 510.654C551.44 505.556 554.414 500.883 559.087 497.909C573.531 488.987 627.486 488.137 655.95 508.53C681.44 527.222 605.394 522.549 562.91 528.497Z" fill="black"/>
<path d="M445.231 533.17C452.878 533.17 457.551 523.399 453.727 515.327C451.603 511.079 448.629 507.255 444.381 505.131C431.211 498.758 395.95 502.582 380.231 524.249C366.211 543.366 409.969 532.745 445.231 533.17Z" fill="black"/>
<path d="M576.928 584.575C591.797 597.745 614.739 597.745 632.582 590.947C635.556 589.673 652.549 582.026 649.15 577.777C648.726 577.353 647.876 576.928 647.451 576.928C635.556 577.353 624.51 578.627 613.039 579.477C601.569 580.326 591.373 579.902 579.477 579.477C576.503 579.477 574.804 582.875 576.928 584.575Z" fill="black"/>
<path d="M409.12 591.798C422.715 607.517 450.329 605.392 463.074 590.098C464.349 588.824 463.074 586.275 461.375 586.7C456.702 587.124 452.453 587.974 448.205 588.399C435.46 590.523 424.839 590.098 411.244 589.673C409.12 588.824 408.27 590.948 409.12 591.798Z" fill="black"/>
<path d="M570.979 232.811C761.305 214.543 824.606 278.268 849.671 300.785C884.933 331.798 938.462 454.575 936.338 524.673C933.789 622.386 855.619 725.621 852.22 730.719C834.802 756.634 816.959 772.353 812.286 777.876C814.835 768.53 819.083 734.968 815.26 729.02C921.469 688.236 902.351 569.706 850.521 562.909C796.142 556.111 779.149 604.543 776.175 616.438C776.175 616.438 776.175 617.713 775.75 619.837C775.325 619.837 774.9 620.262 774.475 620.262C755.783 626.634 738.364 607.941 744.737 589.673C754.508 562.909 765.554 531.896 767.253 511.928C769.802 454.151 746.436 388.301 574.377 397.647C552.286 398.922 533.168 402.321 514.475 406.144C505.129 408.693 480.064 418.464 488.56 442.68C496.632 466.046 513.201 446.928 517.874 449.053C520.423 450.327 504.279 471.994 480.488 467.745C460.946 464.347 445.227 444.379 452.024 418.039C445.227 418.889 438.005 419.739 430.783 420.588C384.9 423.987 343.691 388.301 344.966 342.419C346.24 295.687 389.998 250.229 570.979 232.811Z" fill="black"/>
<path d="M811.01 779.575C811.01 779.151 811.434 778.726 812.284 777.451C811.434 780 811.01 780.85 811.01 779.575Z" fill="black"/>
<path d="M75.6209 358.137C-182.255 854.771 271.046 1415.13 811.438 1278.33C1054.02 1218.01 1249.02 1007.71 1289.38 760.882C1335.26 515.327 1224.38 251.503 1017.06 112.582C732.843 -82.8433 339.02 -17.8433 135.523 261.699C134.248 262.974 134.673 265.098 136.373 266.372C137.647 267.647 139.771 267.222 141.046 265.523C169.085 229.412 200.948 196.699 235.784 167.385C293.137 118.529 360.262 80.2939 431.209 54.3789C792.32 -76.4708 1188.69 141.046 1267.71 518.725C1356.93 941.863 997.092 1331.44 568.007 1273.24C237.059 1231.6 -8.92153 926.144 18.268 593.921C24.2157 513.627 45.4576 434.183 80.719 361.111C81.5687 359.836 80.7191 358.137 79.4446 357.287C78.1701 356.438 76.4706 356.863 75.6209 358.137Z" fill="#21FF7E"/>
</g>
</svg>
