<svg width="937" height="656" viewBox="0 0 937 656" fill="none" xmlns="http://www.w3.org/2000/svg">
<rect x="74.3667" y="640.337" width="208.222" height="14.873" fill="#B8A590"/>
<rect x="282.585" y="625.463" width="193.349" height="14.873" fill="#B8A590"/>
<rect x="475.934" y="640.337" width="208.222" height="14.873" fill="#B8A590"/>
<rect x="684.157" y="625.463" width="74.365" height="14.873" fill="#B8A590"/>
<rect x="758.517" y="640.337" width="133.857" height="14.873" fill="#B8A590"/>
<rect width="14.873" height="356.952" transform="matrix(-1 0 0 1 29.7442 90.0388)" fill="#B8A590"/>
<rect x="29.7442" y="446.993" width="14.873" height="178.476" fill="#B8A590"/>
<rect x="892.38" y="536.228" width="14.873" height="104.111" fill="#B8A590"/>
<rect x="907.254" y="238.77" width="14.873" height="297.46" fill="#B8A590"/>
<rect x="892.38" y="194.153" width="14.873" height="44.619" fill="#B8A590"/>
<rect x="877.506" y="149.53" width="14.873" height="44.619" fill="#B8A590"/>
<rect x="892.38" y="134.656" width="29.746" height="14.873" fill="#B8A590"/>
<rect x="922.123" y="45.4163" width="14.873" height="89.238" fill="#B8A590"/>
<rect x="907.254" y="30.5472" width="14.873" height="14.873" fill="#B8A590"/>
<rect x="654.408" y="15.6731" width="252.841" height="14.873" fill="#B8A590"/>
<rect x="550.299" y="30.5472" width="104.111" height="14.873" fill="#B8A590"/>
<rect x="133.853" y="15.6731" width="416.444" height="14.873" fill="#B8A590"/>
<rect x="89.2358" y="30.5472" width="44.619" height="14.873" fill="#B8A590"/>
<rect x="74.3667" y="45.4163" width="14.873" height="29.746" fill="#B8A590"/>
<rect x="29.7442" y="75.1646" width="44.619" height="14.873" fill="#B8A590"/>
<rect x="44.6133" y="625.463" width="29.746" height="14.873" fill="#B8A590"/>
<rect x="133.853" y="30.5472" width="416.444" height="594.92" fill="#B8A590"/>
<rect x="89.2358" y="45.4163" width="44.619" height="580.047" fill="#B8A590"/>
<rect x="44.6133" y="90.0388" width="44.619" height="356.952" fill="#B8A590"/>
<rect x="29.7442" y="90.0388" width="14.873" height="356.952" fill="#B8A590"/>
<rect x="892.38" y="238.77" width="14.873" height="297.46" fill="#B8A590"/>
<rect x="892.38" y="45.4163" width="29.746" height="89.238" fill="#B8A590"/>
<rect x="44.6133" y="446.993" width="44.619" height="178.476" fill="#B8A590"/>
<rect x="74.3667" y="625.463" width="208.222" height="14.873" fill="#B8A590"/>
<rect x="475.934" y="625.463" width="208.222" height="14.873" fill="#B8A590"/>
<rect x="758.517" y="238.77" width="133.857" height="401.571" fill="#B8A590"/>
<rect x="550.299" y="45.4163" width="208.222" height="580.047" fill="#B8A590"/>
<rect x="654.408" y="30.5472" width="252.841" height="14.873" fill="#B8A590"/>
<rect x="877.506" y="194.153" width="14.873" height="44.619" fill="#B8A590"/>
<rect x="877.506" y="45.4163" width="14.873" height="104.111" fill="#B8A590"/>
<rect x="758.517" y="45.4163" width="118.984" height="193.349" fill="#B8A590"/>
<rect x="59.4955" y="625.457" width="208.222" height="14.873" fill="#DCC7AF"/>
<rect x="267.713" y="610.583" width="193.349" height="14.873" fill="#DCC7AF"/>
<rect x="475.937" y="625.457" width="193.349" height="14.873" fill="#DCC7AF"/>
<rect x="669.286" y="610.583" width="74.365" height="14.873" fill="#DCC7AF"/>
<rect x="758.52" y="625.457" width="118.984" height="14.873" fill="#DCC7AF"/>
<rect width="14.873" height="356.952" transform="matrix(-1 0 0 1 14.8729 75.1588)" fill="#DCC7AF"/>
<rect x="14.8729" y="432.113" width="14.873" height="178.476" fill="#DCC7AF"/>
<rect x="877.504" y="521.348" width="14.873" height="104.111" fill="#DCC7AF"/>
<rect x="892.383" y="223.89" width="14.873" height="297.46" fill="#DCC7AF"/>
<rect x="877.504" y="179.273" width="14.873" height="44.619" fill="#DCC7AF"/>
<rect x="862.634" y="134.65" width="14.873" height="44.619" fill="#DCC7AF"/>
<rect x="877.504" y="119.776" width="29.746" height="14.873" fill="#DCC7AF"/>
<rect x="907.252" y="30.5363" width="14.873" height="89.238" fill="#DCC7AF"/>
<rect x="892.383" y="15.6672" width="14.873" height="14.873" fill="#DCC7AF"/>
<rect x="639.537" y="0.79306" width="252.841" height="14.873" fill="#DCC7AF"/>
<rect x="535.428" y="15.6672" width="104.111" height="14.873" fill="#DCC7AF"/>
<rect x="118.982" y="0.79306" width="416.444" height="14.873" fill="#DCC7AF"/>
<rect x="74.3645" y="15.6672" width="44.619" height="14.873" fill="#DCC7AF"/>
<rect x="59.4955" y="30.5363" width="14.873" height="29.746" fill="#DCC7AF"/>
<rect x="14.8729" y="60.2846" width="44.619" height="14.873" fill="#DCC7AF"/>
<rect x="29.742" y="610.583" width="29.746" height="14.873" fill="#DCC7AF"/>
<rect x="118.982" y="15.6672" width="416.444" height="594.92" fill="#DCC7AF"/>
<rect x="74.3645" y="30.5363" width="44.619" height="580.047" fill="#DCC7AF"/>
<rect x="29.742" y="75.1588" width="44.619" height="356.952" fill="#DCC7AF"/>
<rect x="14.8729" y="75.1588" width="14.873" height="356.952" fill="#DCC7AF"/>
<rect x="877.504" y="223.89" width="14.873" height="297.46" fill="#DCC7AF"/>
<rect x="877.504" y="30.5363" width="29.746" height="89.238" fill="#DCC7AF"/>
<rect x="29.742" y="432.113" width="44.619" height="178.476" fill="#DCC7AF"/>
<rect x="59.4955" y="610.583" width="208.222" height="14.873" fill="#DCC7AF"/>
<rect x="461.062" y="610.583" width="208.222" height="14.873" fill="#DCC7AF"/>
<rect x="743.646" y="223.89" width="133.857" height="401.571" fill="#DCC7AF"/>
<rect x="535.428" y="30.5363" width="208.222" height="580.047" fill="#DCC7AF"/>
<rect x="639.537" y="15.6672" width="252.841" height="14.873" fill="#DCC7AF"/>
<rect x="862.634" y="179.273" width="14.873" height="44.619" fill="#DCC7AF"/>
<rect x="862.634" y="30.5363" width="14.873" height="104.111" fill="#DCC7AF"/>
<rect x="743.646" y="30.5363" width="118.984" height="193.349" fill="#DCC7AF"/>
<rect x="59.4955" y="60.2846" width="14.873" height="14.873" fill="#DCC7AF"/>
<rect x="847.76" y="179.273" width="14.873" height="297.46" fill="#BAA48B"/>
<rect x="847.76" y="179.273" width="14.873" height="297.46" fill="#BAA48B"/>
<rect x="74.3645" y="179.273" width="14.873" height="297.46" fill="#BAA48B"/>
<rect x="89.235" y="134.655" width="14.873" height="74.365" transform="rotate(-180 89.235 134.655)" fill="#BAA48B"/>
<rect x="148.727" y="60.2895" width="14.873" height="59.492" transform="rotate(90 148.727 60.2895)" fill="#BAA48B"/>
<rect x="89.2343" y="90.0387" width="14.873" height="14.873" fill="#BAA48B"/>
<rect x="104.114" y="75.1645" width="14.873" height="14.873" fill="#BAA48B"/>
<rect x="118.983" y="104.908" width="14.873" height="14.873" fill="#BAA48B"/>
<rect width="14.873" height="74.365" transform="matrix(-1 0 0 1 89.235 521.344)" fill="#BAA48B"/>
<rect width="14.873" height="59.492" transform="matrix(0 -1 -1 0 148.727 595.71)" fill="#BAA48B"/>
<rect width="14.873" height="14.873" transform="matrix(1 0 0 -1 89.2343 565.968)" fill="#BAA48B"/>
<rect width="14.873" height="14.873" transform="matrix(1 0 0 -1 104.114 580.842)" fill="#BAA48B"/>
<rect width="14.873" height="14.873" transform="matrix(1 0 0 -1 118.983 551.093)" fill="#BAA48B"/>
<rect x="847.764" y="521.344" width="14.873" height="74.365" fill="#BAA48B"/>
<rect x="788.273" y="595.71" width="14.873" height="59.492" transform="rotate(-90 788.273 595.71)" fill="#BAA48B"/>
<rect x="847.765" y="565.968" width="14.873" height="14.873" transform="rotate(180 847.765 565.968)" fill="#BAA48B"/>
<rect x="832.886" y="580.842" width="14.873" height="14.873" transform="rotate(180 832.886 580.842)" fill="#BAA48B"/>
<rect x="818.017" y="551.093" width="14.873" height="14.873" transform="rotate(180 818.017 551.093)" fill="#BAA48B"/>
<rect width="14.873" height="74.365" transform="matrix(1 0 0 -1 847.764 134.655)" fill="#BAA48B"/>
<rect width="14.873" height="59.492" transform="matrix(0 1 1 0 788.273 60.2895)" fill="#BAA48B"/>
<rect width="14.873" height="14.873" transform="matrix(-1 0 0 1 847.765 90.0387)" fill="#BAA48B"/>
<rect width="14.873" height="14.873" transform="matrix(-1 0 0 1 832.886 75.1645)" fill="#BAA48B"/>
<rect width="14.873" height="14.873" transform="matrix(-1 0 0 1 818.017 104.908)" fill="#BAA48B"/>
<rect width="14.873" height="297.46" transform="matrix(1 0 0 -1 892.383 521.348)" fill="#E9D2B8"/>
<rect x="892.383" y="625.457" width="14.873" height="104.111" transform="rotate(180 892.383 625.457)" fill="#E9D2B8"/>
<rect x="877.504" y="640.331" width="118.984" height="14.873" transform="rotate(180 877.504 640.331)" fill="#E9D2B8"/>
<rect x="758.52" y="625.457" width="89.238" height="14.873" transform="rotate(180 758.52 625.457)" fill="#E9D2B8"/>
<rect x="669.286" y="640.331" width="193.349" height="14.873" transform="rotate(180 669.286 640.331)" fill="#E9D2B8"/>
<rect x="475.937" y="625.457" width="208.222" height="14.873" transform="rotate(180 475.937 625.457)" fill="#E9D2B8"/>
<rect x="267.713" y="640.331" width="208.222" height="14.873" transform="rotate(180 267.713 640.331)" fill="#E9D2B8"/>
<rect x="59.4955" y="625.457" width="29.746" height="14.873" transform="rotate(180 59.4955 625.457)" fill="#E9D2B8"/>
<rect x="29.742" y="610.588" width="14.873" height="178.476" transform="rotate(180 29.742 610.588)" fill="#E9D2B8"/>
<rect x="14.8729" y="432.113" width="14.873" height="356.952" transform="rotate(180 14.8729 432.113)" fill="#E9D2B8"/>
<rect width="14.873" height="29.746" transform="matrix(1 0 0 -1 877.504 209.016)" fill="#E9D2B8"/>
<rect width="14.873" height="44.619" transform="matrix(1 0 0 -1 862.634 179.273)" fill="#E9D2B8"/>
<rect width="14.873" height="14.873" transform="matrix(1 0 0 -1 892.383 134.65)" fill="#E9D2B8"/>
<rect width="14.873" height="29.746" transform="matrix(1 0 0 -1 892.383 45.4105)" fill="#E9D2B8"/>
<rect width="14.873" height="29.746" transform="matrix(1 0 0 -1 877.504 30.5414)" fill="#E9D2B8"/>
<rect width="14.873" height="89.238" transform="matrix(1 0 0 -1 907.252 119.776)" fill="#E9D2B8"/>
<rect x="14.8729" y="60.2897" width="44.619" height="14.873" fill="#E9D2B8"/>
<rect x="59.4955" y="30.5414" width="14.873" height="29.746" fill="#E9D2B8"/>
<rect x="74.3645" y="15.6672" width="44.619" height="14.873" fill="#E9D2B8"/>
<rect x="118.982" y="0.79306" width="416.444" height="14.873" fill="#E9D2B8"/>
<rect x="535.428" y="15.6672" width="104.111" height="14.873" fill="#E9D2B8"/>
<rect x="639.537" y="0.79306" width="237.968" height="14.873" fill="#E9D2B8"/>
<rect x="877.504" y="402.365" width="14.873" height="29.746" fill="#E9D2B8"/>
<rect x="877.504" y="268.508" width="14.873" height="14.873" fill="#E9D2B8"/>
<rect x="877.504" y="60.2897" width="29.746" height="14.873" fill="#E9D2B8"/>
<rect x="892.383" y="75.1588" width="14.873" height="14.873" fill="#E9D2B8"/>
<rect x="684.16" y="15.6672" width="104.111" height="14.873" fill="#E9D2B8"/>
<rect x="713.903" y="30.5414" width="29.746" height="14.873" fill="#E9D2B8"/>
<rect x="371.822" y="15.6672" width="29.746" height="14.873" fill="#E9D2B8"/>
<rect x="386.697" y="30.5414" width="14.873" height="14.873" fill="#E9D2B8"/>
<rect x="475.937" y="15.6672" width="44.619" height="14.873" fill="#E9D2B8"/>
<rect x="118.982" y="15.6672" width="14.873" height="14.873" fill="#E9D2B8"/>
<rect x="118.982" y="30.5414" width="29.746" height="14.873" fill="#E9D2B8"/>
<rect x="14.8729" y="75.1588" width="14.873" height="104.111" fill="#E9D2B8"/>
<rect x="29.742" y="75.1588" width="14.873" height="59.492" fill="#E9D2B8"/>
<rect x="14.8729" y="298.256" width="14.873" height="74.365" fill="#E9D2B8"/>
<rect x="29.742" y="357.748" width="14.873" height="44.619" fill="#E9D2B8"/>
<rect x="14.8729" y="402.365" width="14.873" height="29.746" fill="#E9D2B8"/>
<rect x="29.742" y="446.983" width="14.873" height="104.111" fill="#E9D2B8"/>
<rect x="29.742" y="565.971" width="14.873" height="14.873" fill="#E9D2B8"/>
<rect x="118.982" y="610.588" width="44.619" height="14.873" fill="#E9D2B8"/>
<rect x="178.479" y="610.588" width="29.746" height="14.873" fill="#E9D2B8"/>
<rect x="356.953" y="595.714" width="59.492" height="14.873" fill="#E9D2B8"/>
<rect x="565.177" y="610.588" width="14.873" height="14.873" fill="#E9D2B8"/>
<rect x="624.663" y="610.588" width="29.746" height="14.873" fill="#E9D2B8"/>
<rect x="713.903" y="595.714" width="29.746" height="14.873" fill="#E9D2B8"/>
<rect x="818.017" y="610.588" width="14.873" height="14.873" fill="#E9D2B8"/>
</svg>
