<svg id="Layer_1" data-name="Layer 1" xmlns="http://www.w3.org/2000/svg" viewBox="0 0 1403.57 903.57"><defs><style>.cls-1{fill:#21ff7e;}.cls-2{fill:#fff;}</style></defs><rect class="cls-1" x="785.71" y="285.72" width="46.43" height="46.43"/><rect class="cls-1" x="857.14" y="285.72" width="46.43" height="46.43"/><rect class="cls-1" x="928.57" y="285.72" width="46.43" height="46.43"/><rect class="cls-1" x="785.71" y="214.29" width="46.43" height="46.43"/><rect class="cls-1" x="1214.29" y="357.14" width="46.43" height="46.43"/><rect class="cls-1" x="1142.86" y="357.14" width="46.43" height="46.43"/><rect class="cls-1" x="1071.43" y="357.14" width="46.43" height="46.43"/><rect class="cls-1" x="1214.29" y="285.72" width="46.43" height="46.43"/><rect class="cls-1" x="1357.14" y="714.28" width="46.43" height="46.43"/><rect class="cls-1" x="1285.71" y="714.28" width="46.43" height="46.43"/><rect class="cls-1" x="1214.29" y="714.28" width="46.43" height="46.43"/><rect class="cls-1" x="1357.14" y="642.86" width="46.43" height="46.43"/><rect class="cls-1" x="428.58" y="857.14" width="46.43" height="46.43"/><rect class="cls-1" x="428.58" y="785.71" width="46.43" height="46.43"/><rect class="cls-1" x="428.58" y="714.29" width="46.43" height="46.43"/><rect class="cls-1" x="500" y="857.14" width="46.43" height="46.43"/><rect class="cls-1" x="1000" y="714.29" width="46.43" height="46.43"/><rect class="cls-1" x="1000" y="785.71" width="46.43" height="46.43"/><rect class="cls-1" x="1000" y="857.14" width="46.43" height="46.43"/><rect class="cls-1" x="1071.43" y="714.29" width="46.43" height="46.43"/><rect class="cls-2" x="214.29" y="857.14" width="46.43" height="46.43"/><rect class="cls-2" x="214.29" y="785.71" width="46.43" height="46.43"/><rect class="cls-2" x="214.29" y="714.29" width="46.43" height="46.43"/><rect class="cls-2" x="285.72" y="785.72" width="46.43" height="46.43"/><rect class="cls-1" x="1357.14" y="142.86" width="46.43" height="46.43"/><rect class="cls-1" x="1357.14" y="71.43" width="46.43" height="46.43"/><rect class="cls-1" x="1357.14" width="46.43" height="46.43"/><rect class="cls-1" x="1285.72" y="71.43" width="46.43" height="46.43"/><rect class="cls-1" x="714.29" y="571.43" width="46.43" height="46.43"/><rect class="cls-1" x="714.29" y="500" width="46.43" height="46.43"/><rect class="cls-1" x="714.29" y="428.57" width="46.43" height="46.43"/><rect class="cls-1" x="642.86" y="500" width="46.43" height="46.43"/><rect class="cls-1" x="428.57" y="428.57" width="46.43" height="46.43"/><rect class="cls-1" x="428.57" y="500" width="46.43" height="46.43"/><rect class="cls-1" x="428.57" y="571.43" width="46.43" height="46.43"/><rect class="cls-1" x="500" y="500" width="46.43" height="46.43"/><rect class="cls-1" x="1071.43" y="500" width="46.43" height="46.43"/><rect class="cls-1" x="1142.86" y="500" width="46.43" height="46.43"/><rect class="cls-1" x="1214.29" y="500" width="46.43" height="46.43"/><rect class="cls-1" x="1142.86" y="571.43" width="46.43" height="46.43"/><rect class="cls-2" x="1285.71" y="857.14" width="46.43" height="46.43"/><rect class="cls-2" x="1214.29" y="857.14" width="46.43" height="46.43"/><rect class="cls-2" x="1142.86" y="857.14" width="46.43" height="46.43"/><rect class="cls-2" x="1357.14" y="857.14" width="46.43" height="46.43"/><rect class="cls-1" x="1357.14" y="428.58" width="46.43" height="46.43"/><rect class="cls-1" x="1357.14" y="357.15" width="46.43" height="46.43"/><rect class="cls-1" x="1357.14" y="285.72" width="46.43" height="46.43"/><rect class="cls-1" x="1357.14" y="500" width="46.43" height="46.43"/><rect class="cls-1" x="642.86" y="714.29" width="46.43" height="46.43"/><rect class="cls-1" x="571.43" y="714.29" width="46.43" height="46.43"/><rect class="cls-1" x="571.43" y="642.86" width="46.43" height="46.43"/><rect class="cls-1" x="642.85" y="785.71" width="46.43" height="46.43"/><rect class="cls-2" x="858.16" y="786.74" width="46.43" height="46.43"/><rect class="cls-2" x="786.74" y="786.74" width="46.43" height="46.43"/><rect class="cls-2" x="786.74" y="715.31" width="46.43" height="46.43"/><rect class="cls-2" x="857.14" y="857.14" width="46.43" height="46.43"/><rect class="cls-2" x="857.14" y="500" width="46.43" height="46.43"/><rect class="cls-2" x="928.57" y="500" width="46.43" height="46.43"/><rect class="cls-2" x="928.57" y="428.58" width="46.43" height="46.43"/><rect class="cls-2" x="857.15" y="571.43" width="46.43" height="46.43"/><rect class="cls-2" x="1142.86" y="71.43" width="46.43" height="46.43"/><rect class="cls-2" x="1071.43" y="142.86" width="46.43" height="46.43"/><rect class="cls-2" x="1142.86" y="142.86" width="46.43" height="46.43"/><rect class="cls-2" x="1071.43" y="71.44" width="46.43" height="46.43"/><rect class="cls-1" x="71.43" y="785.71" width="46.43" height="46.43"/><rect class="cls-1" y="857.14" width="46.43" height="46.43"/><rect class="cls-1" x="71.43" y="857.14" width="46.43" height="46.43"/><rect class="cls-1" y="785.72" width="46.43" height="46.43"/></svg>