<svg id="Layer_1" data-name="Layer 1" xmlns="http://www.w3.org/2000/svg" viewBox="0 0 3239.7 975"><defs><style>.cls-1{fill:#21ff7e;}.cls-2{fill:#fff;}</style></defs><rect class="cls-1" x="2621.84" y="357.14" width="46.43" height="46.43"/><rect class="cls-1" x="2693.27" y="357.14" width="46.43" height="46.43"/><rect class="cls-1" x="2764.7" y="357.14" width="46.43" height="46.43"/><rect class="cls-1" x="2621.84" y="285.72" width="46.43" height="46.43"/><rect class="cls-1" x="3050.41" y="428.57" width="46.43" height="46.43"/><rect class="cls-1" x="2978.98" y="428.57" width="46.43" height="46.43"/><rect class="cls-1" x="2907.55" y="428.57" width="46.43" height="46.43"/><rect class="cls-1" x="3050.41" y="357.14" width="46.43" height="46.43"/><rect class="cls-1" x="3193.27" y="785.71" width="46.43" height="46.43"/><rect class="cls-1" x="3121.84" y="785.71" width="46.43" height="46.43"/><rect class="cls-1" x="3050.41" y="785.71" width="46.43" height="46.43"/><rect class="cls-1" x="3193.27" y="714.28" width="46.43" height="46.43"/><rect class="cls-1" x="2264.7" y="928.57" width="46.43" height="46.43"/><rect class="cls-1" x="2264.7" y="857.14" width="46.43" height="46.43"/><rect class="cls-1" x="2264.7" y="785.71" width="46.43" height="46.43"/><rect class="cls-1" x="2336.13" y="928.57" width="46.43" height="46.43"/><rect class="cls-1" x="2836.13" y="785.71" width="46.43" height="46.43"/><rect class="cls-1" x="2836.13" y="857.14" width="46.43" height="46.43"/><rect class="cls-1" x="2836.13" y="928.57" width="46.43" height="46.43"/><rect class="cls-1" x="2907.55" y="785.71" width="46.43" height="46.43"/><rect class="cls-2" x="2050.42" y="928.57" width="46.43" height="46.43"/><rect class="cls-2" x="2050.42" y="857.14" width="46.43" height="46.43"/><rect class="cls-2" x="2050.42" y="785.71" width="46.43" height="46.43"/><rect class="cls-2" x="2121.84" y="857.14" width="46.43" height="46.43"/><rect class="cls-1" x="3193.27" y="214.29" width="46.43" height="46.43"/><rect class="cls-1" x="3193.27" y="142.86" width="46.43" height="46.43"/><rect class="cls-1" x="3193.27" y="71.43" width="46.43" height="46.43"/><rect class="cls-1" x="3121.84" y="142.86" width="46.43" height="46.43"/><rect class="cls-1" x="2550.41" y="642.86" width="46.43" height="46.43"/><rect class="cls-1" x="2550.41" y="571.43" width="46.43" height="46.43"/><rect class="cls-1" x="2550.41" y="500" width="46.43" height="46.43"/><rect class="cls-1" x="2478.99" y="571.43" width="46.43" height="46.43"/><rect class="cls-1" x="2264.7" y="500" width="46.43" height="46.43"/><rect class="cls-1" x="2264.7" y="571.43" width="46.43" height="46.43"/><rect class="cls-1" x="2264.7" y="642.86" width="46.43" height="46.43"/><rect class="cls-1" x="2336.13" y="571.43" width="46.43" height="46.43"/><rect class="cls-1" x="2907.55" y="571.43" width="46.43" height="46.43"/><rect class="cls-1" x="2978.98" y="571.43" width="46.43" height="46.43"/><rect class="cls-1" x="3050.41" y="571.43" width="46.43" height="46.43"/><rect class="cls-1" x="2978.98" y="642.86" width="46.43" height="46.43"/><rect class="cls-2" x="3121.84" y="928.57" width="46.43" height="46.43"/><rect class="cls-2" x="3050.41" y="928.57" width="46.43" height="46.43"/><rect class="cls-2" x="2978.98" y="928.57" width="46.43" height="46.43"/><rect class="cls-2" x="3193.27" y="928.57" width="46.43" height="46.43"/><rect class="cls-1" x="3193.27" y="500" width="46.43" height="46.43"/><rect class="cls-1" x="3193.27" y="428.57" width="46.43" height="46.43"/><rect class="cls-1" x="3193.27" y="357.14" width="46.43" height="46.43"/><rect class="cls-1" x="3193.27" y="571.43" width="46.43" height="46.43"/><rect class="cls-1" x="2478.98" y="785.71" width="46.43" height="46.43"/><rect class="cls-1" x="2407.55" y="785.71" width="46.43" height="46.43"/><rect class="cls-1" x="2407.55" y="714.28" width="46.43" height="46.43"/><rect class="cls-1" x="2478.98" y="857.14" width="46.43" height="46.43"/><rect class="cls-2" x="2694.29" y="858.17" width="46.43" height="46.43"/><rect class="cls-2" x="2622.86" y="858.17" width="46.43" height="46.43"/><rect class="cls-2" x="2622.86" y="786.74" width="46.43" height="46.43"/><rect class="cls-2" x="2693.27" y="928.57" width="46.43" height="46.43"/><rect class="cls-2" x="2693.27" y="571.43" width="46.43" height="46.43"/><rect class="cls-2" x="2764.7" y="571.43" width="46.43" height="46.43"/><rect class="cls-2" x="2764.7" y="500" width="46.43" height="46.43"/><rect class="cls-2" x="2693.27" y="642.86" width="46.43" height="46.43"/><rect class="cls-2" x="2978.98" y="142.86" width="46.43" height="46.43"/><rect class="cls-2" x="2907.55" y="214.29" width="46.43" height="46.43"/><rect class="cls-2" x="2978.98" y="214.29" width="46.43" height="46.43"/><rect class="cls-2" x="2907.56" y="142.86" width="46.43" height="46.43"/><rect class="cls-1" x="1907.56" y="857.14" width="46.43" height="46.43"/><rect class="cls-1" x="1836.13" y="928.57" width="46.43" height="46.43"/><rect class="cls-1" x="1907.56" y="928.57" width="46.43" height="46.43"/><rect class="cls-1" x="1836.13" y="857.14" width="46.43" height="46.43"/><rect class="cls-1" x="285.71" y="142.86" width="46.43" height="46.43"/><rect class="cls-1" x="285.71" y="71.43" width="46.43" height="46.43"/><rect class="cls-1" x="285.71" width="46.43" height="46.43"/><rect class="cls-1" x="214.29" y="142.86" width="46.43" height="46.43"/><rect class="cls-1" x="571.43" y="428.57" width="46.43" height="46.43"/><rect class="cls-1" x="500" y="428.57" width="46.43" height="46.43"/><rect class="cls-1" x="428.57" y="428.57" width="46.43" height="46.43"/><rect class="cls-1" x="571.43" y="500" width="46.43" height="46.43"/><rect class="cls-2" x="142.86" y="857.14" width="46.43" height="46.43"/><rect class="cls-2" x="71.43" y="857.14" width="46.43" height="46.43"/><rect class="cls-2" y="857.14" width="46.43" height="46.43"/><rect class="cls-2" x="142.86" y="785.71" width="46.43" height="46.43"/><rect class="cls-2" x="1285.71" y="857.14" width="46.43" height="46.43"/><rect class="cls-2" x="1214.28" y="857.14" width="46.43" height="46.43"/><rect class="cls-2" x="1142.85" y="857.14" width="46.43" height="46.43"/><rect class="cls-2" x="1285.71" y="785.71" width="46.43" height="46.43"/><rect class="cls-1" x="428.57" y="642.86" width="46.43" height="46.43"/><rect class="cls-1" x="500" y="642.86" width="46.43" height="46.43"/><rect class="cls-1" x="571.43" y="642.86" width="46.43" height="46.43"/><rect class="cls-1" x="428.57" y="571.43" width="46.43" height="46.43"/><rect class="cls-1" x="285.71" y="857.14" width="46.43" height="46.43"/><rect class="cls-1" x="285.71" y="785.71" width="46.43" height="46.43"/><rect class="cls-1" x="285.71" y="714.29" width="46.43" height="46.43"/><rect class="cls-1" x="357.14" y="857.14" width="46.43" height="46.43"/><rect class="cls-2" x="857.14" y="428.57" width="46.43" height="46.43"/><rect class="cls-2" x="785.71" y="428.57" width="46.43" height="46.43"/><rect class="cls-2" x="714.28" y="428.57" width="46.43" height="46.43"/><rect class="cls-2" x="785.71" y="357.14" width="46.43" height="46.43"/><rect class="cls-1" y="571.43" width="46.43" height="46.43"/><rect class="cls-1" y="642.86" width="46.43" height="46.43"/><rect class="cls-1" y="714.29" width="46.43" height="46.43"/><rect class="cls-1" x="71.43" y="642.86" width="46.43" height="46.43"/><rect class="cls-1" x="857.14" y="857.14" width="46.43" height="46.43"/><rect class="cls-1" x="928.57" y="857.14" width="46.43" height="46.43"/><rect class="cls-1" x="1000" y="857.14" width="46.43" height="46.43"/><rect class="cls-1" x="928.57" y="785.72" width="46.43" height="46.43"/><rect class="cls-1" x="428.57" y="142.86" width="46.43" height="46.43"/><rect class="cls-1" x="428.57" y="214.29" width="46.43" height="46.43"/><rect class="cls-1" x="428.57" y="285.72" width="46.43" height="46.43"/><rect class="cls-1" x="500" y="214.29" width="46.43" height="46.43"/><rect class="cls-1" x="785.71" y="214.29" width="46.43" height="46.43"/><rect class="cls-1" x="714.29" y="214.29" width="46.43" height="46.43"/><rect class="cls-1" x="642.86" y="214.29" width="46.43" height="46.43"/><rect class="cls-1" x="857.14" y="214.29" width="46.43" height="46.43"/><rect class="cls-1" x="214.29" y="571.43" width="46.43" height="46.43"/><rect class="cls-1" x="214.29" y="500" width="46.43" height="46.43"/><rect class="cls-1" x="142.86" y="500" width="46.43" height="46.43"/><rect class="cls-1" x="285.71" y="571.42" width="46.43" height="46.43"/><rect class="cls-1" x="785.71" y="642.86" width="46.43" height="46.43"/><rect class="cls-1" x="714.28" y="642.86" width="46.43" height="46.43"/><rect class="cls-1" x="714.28" y="714.29" width="46.43" height="46.43"/><rect class="cls-1" x="785.71" y="571.43" width="46.43" height="46.43"/><rect class="cls-2" x="571.43" y="857.14" width="46.43" height="46.43"/><rect class="cls-2" x="571.43" y="785.71" width="46.43" height="46.43"/><rect class="cls-2" x="500" y="785.71" width="46.43" height="46.43"/><rect class="cls-2" x="642.86" y="857.14" width="46.43" height="46.43"/><rect class="cls-1" x="71.43" y="285.71" width="46.43" height="46.43"/><rect class="cls-1" y="285.71" width="46.43" height="46.43"/><rect class="cls-1" y="357.14" width="46.43" height="46.43"/><rect class="cls-1" x="71.43" y="214.29" width="46.43" height="46.43"/><rect class="cls-1" x="928.58" y="642.86" width="46.43" height="46.43"/><rect class="cls-1" x="1000" y="571.43" width="46.43" height="46.43"/><rect class="cls-1" x="1000" y="642.86" width="46.43" height="46.43"/><rect class="cls-1" x="928.58" y="571.43" width="46.43" height="46.43"/><rect class="cls-1" y="71.43" width="46.43" height="46.43"/><rect class="cls-1" x="71.43" width="46.43" height="46.43"/><rect class="cls-1" x="71.43" y="71.43" width="46.43" height="46.43"/><rect class="cls-1" width="46.43" height="46.43"/><rect class="cls-2" x="285.71" y="285.71" width="46.43" height="46.43"/><rect class="cls-2" x="285.71" y="357.14" width="46.43" height="46.43"/><rect class="cls-2" x="214.29" y="357.14" width="46.43" height="46.43"/></svg>