<svg id="visual" viewBox="0 0 900 600" width="900" height="600" xmlns="http://www.w3.org/2000/svg" xmlns:xlink="http://www.w3.org/1999/xlink" version="1.1"><path d="M0 306L15 300.8C30 295.7 60 285.3 90 287.8C120 290.3 150 305.7 180 312.3C210 319 240 317 270 308.7C300 300.3 330 285.7 360 278.3C390 271 420 271 450 269.7C480 268.3 510 265.7 540 274.2C570 282.7 600 302.3 630 301.7C660 301 690 280 720 276.2C750 272.3 780 285.7 810 286.2C840 286.7 870 274.3 885 268.2L900 262L900 601L885 601C870 601 840 601 810 601C780 601 750 601 720 601C690 601 660 601 630 601C600 601 570 601 540 601C510 601 480 601 450 601C420 601 390 601 360 601C330 601 300 601 270 601C240 601 210 601 180 601C150 601 120 601 90 601C60 601 30 601 15 601L0 601Z" fill="#21ff7e"></path><path d="M0 315L15 315.3C30 315.7 60 316.3 90 324.8C120 333.3 150 349.7 180 351.7C210 353.7 240 341.3 270 340.2C300 339 330 349 360 346C390 343 420 327 450 329.8C480 332.7 510 354.3 540 361.3C570 368.3 600 360.7 630 356.7C660 352.7 690 352.3 720 349C750 345.7 780 339.3 810 335.5C840 331.7 870 330.3 885 329.7L900 329L900 601L885 601C870 601 840 601 810 601C780 601 750 601 720 601C690 601 660 601 630 601C600 601 570 601 540 601C510 601 480 601 450 601C420 601 390 601 360 601C330 601 300 601 270 601C240 601 210 601 180 601C150 601 120 601 90 601C60 601 30 601 15 601L0 601Z" fill="#23e776"></path><path d="M0 432L15 431.2C30 430.3 60 428.7 90 425.8C120 423 150 419 180 412.8C210 406.7 240 398.3 270 396C300 393.7 330 397.3 360 402.7C390 408 420 415 450 418.5C480 422 510 422 540 415.8C570 409.7 600 397.3 630 391.8C660 386.3 690 387.7 720 397.8C750 408 780 427 810 433.2C840 439.3 870 432.7 885 429.3L900 426L900 601L885 601C870 601 840 601 810 601C780 601 750 601 720 601C690 601 660 601 630 601C600 601 570 601 540 601C510 601 480 601 450 601C420 601 390 601 360 601C330 601 300 601 270 601C240 601 210 601 180 601C150 601 120 601 90 601C60 601 30 601 15 601L0 601Z" fill="#25d06e"></path><path d="M0 501L15 492.3C30 483.7 60 466.3 90 464.5C120 462.7 150 476.3 180 482.2C210 488 240 486 270 479.8C300 473.7 330 463.3 360 456C390 448.7 420 444.3 450 446C480 447.7 510 455.3 540 464.7C570 474 600 485 630 488.8C660 492.7 690 489.3 720 486.2C750 483 780 480 810 473.2C840 466.3 870 455.7 885 450.3L900 445L900 601L885 601C870 601 840 601 810 601C780 601 750 601 720 601C690 601 660 601 630 601C600 601 570 601 540 601C510 601 480 601 450 601C420 601 390 601 360 601C330 601 300 601 270 601C240 601 210 601 180 601C150 601 120 601 90 601C60 601 30 601 15 601L0 601Z" fill="#27b965"></path><path d="M0 539L15 533.3C30 527.7 60 516.3 90 513.5C120 510.7 150 516.3 180 517.3C210 518.3 240 514.7 270 516.8C300 519 330 527 360 532.8C390 538.7 420 542.3 450 544C480 545.7 510 545.3 540 539.2C570 533 600 521 630 518.8C660 516.7 690 524.3 720 531C750 537.7 780 543.3 810 544.2C840 545 870 541 885 539L900 537L900 601L885 601C870 601 840 601 810 601C780 601 750 601 720 601C690 601 660 601 630 601C600 601 570 601 540 601C510 601 480 601 450 601C420 601 390 601 360 601C330 601 300 601 270 601C240 601 210 601 180 601C150 601 120 601 90 601C60 601 30 601 15 601L0 601Z" fill="#29a35c"></path></svg>